<?xml version="1.0" encoding="UTF-8"?>
<svg id="Layer_1" data-name="Layer 1" xmlns="http://www.w3.org/2000/svg" viewBox="0 0 287.96 287.96">
  <path fill="white" stroke="white" d="M135.52,121.39c-1.06,2.08-.81,7.21-.81,8.93v79.82c0,3.87,1.41,5.71,3.81,7.5,2.64,1.97,8.27,1.97,10.9,0,2.4-1.79,3.81-3.63,3.81-7.5v-79.82c0-1.72,0-7.16-.81-8.93-2.96-6.45-12.88-7.91-16.91,0Z"/>
  <circle fill="white" stroke="white" cx="143.98" cy="84.48" r="12.06"/>
  <path fill="white" stroke="white" d="M143.98,276.97c-73.17,0-132.35-59.46-132.35-132.35S70.81,12.26,143.98,12.26s132.35,59.46,132.35,132.35-59.46,132.35-132.35,132.35Zm1-247.54c-64.12,0-115.91,52.07-115.91,116.19s50.07,113.91,113.91,113.91,115.91-52.07,115.91-115.91S208.83,29.43,144.98,29.43Z"/>
</svg>