<?xml version="1.0" encoding="UTF-8"?>
<svg width="1200pt" fill="none" height="1200pt" version="1.1" viewBox="0 0 1200 1200" xmlns="http://www.w3.org/2000/svg">
 <g fill="white">
  <path d="m600 579.03c-5.5586 0-10.895 2.207-14.828 6.1406s-6.1406 9.2695-6.1406 14.828v83.949c0 7.5039 4.0039 14.438 10.5 18.188 6.5 3.7539 14.504 3.7539 21.004 0 6.4961-3.75 10.5-10.684 10.5-18.188v-83.949c0-5.5703-2.2188-10.914-6.1641-14.848-3.9453-3.9375-9.2969-6.1367-14.871-6.1211z"/>
  <path d="m620.97 516.05c0 11.582-9.3906 20.973-20.973 20.973s-20.969-9.3906-20.969-20.973c0-11.582 9.3867-20.973 20.969-20.973s20.973 9.3906 20.973 20.973"/>
  <path d="m600 348.1c-66.809 0-130.88 26.539-178.12 73.781-47.242 47.242-73.781 111.31-73.781 178.12 0 66.812 26.539 130.88 73.781 178.12 47.242 47.242 111.31 73.781 178.12 73.781 66.812 0 130.88-26.539 178.12-73.781s73.781-111.31 73.781-178.12c0-44.219-11.641-87.656-33.75-125.95-22.109-38.297-53.906-70.098-92.203-92.203-38.293-22.109-81.734-33.75-125.95-33.75zm0 461.8c-55.668 0-109.05-22.117-148.42-61.48-39.367-39.363-61.48-92.75-61.48-148.42 0-55.668 22.113-109.05 61.48-148.42 39.363-39.367 92.75-61.48 148.42-61.48 55.672 0 109.06 22.113 148.42 61.48 39.363 39.363 61.48 92.75 61.48 148.42-0.066406 55.648-22.203 109-61.555 148.35-39.348 39.352-92.699 61.488-148.35 61.555z"/>
 </g>
</svg>
