<svg enable-background="new 0 0 50 50" viewBox="0 0 50 50" xmlns="http://www.w3.org/2000/svg"><path d="m43.167 27.559-5.94-2.288 5.912-2.138c.938-.339 1.048-1.005 1.05-1.274.003-.271-.091-.938-1.022-1.297l-17.227-6.636c-.37-.143-.844-.221-1.332-.221-.32 0-.797.034-1.24.194l-16.505 5.968c-.938.339-1.048 1.005-1.05 1.275-.003.271.091.938 1.023 1.297l5.945 2.291-5.921 2.139c-.938.34-1.048 1.006-1.05 1.275-.003.271.091.938 1.022 1.297l17.224 6.631c.384.148.858.223 1.331.223.441 0 .881-.064 1.242-.195l16.51-5.971c.938-.338 1.048-1.004 1.05-1.273.003-.272-.089-.94-1.022-1.297zm-19.12-11.779c.211-.075.966-.068 1.175.012l15.656 6.032-14.924 5.395c-.209.076-.964.07-1.175-.012l-15.655-6.032zm1.903 18.439c-.29.105-.883.102-1.175-.012l-15.654-6.027 6.509-2.354 8.432 3.248c.37.143.844.221 1.332.221.321 0 .797-.033 1.241-.193l7.721-2.791 6.524 2.512z"/></svg>