<svg fill="none" height="1200pt" viewBox="0 0 1200 1200" width="1200pt" xmlns="http://www.w3.org/2000/svg"><path d="m599.63 275.04c-120.81 0-218.91 98.41-218.91 219.31s98.102 219.08 218.91 219.08 218.91-98.176 218.91-219.08c0-120.9-98.102-219.31-218.91-219.31zm-7.5508 15.816v97.734h-84.215c17.672-54.688 48.488-92.949 84.215-97.734zm15.098 0c35.742 4.6953 66.508 42.852 84.215 97.5h-84.215zm41.754 5.4297c52.738 13.098 97.254 46.867 124.79 92.07h-70.297c-12.316-40.578-31.34-72.922-54.492-92.07zm-99.312.23438c-22.969 19.207-41.871 51.543-54.02 92.07h-70.297c27.398-45.137 71.785-78.82 124.32-92.07zm-132.57 106.94h74.543c-6.2578 25.375-9.8398 53.465-10.379 83.336h-85.16c1.0742-29.883 8.4297-58.074 20.996-83.336zm86.574 0h88.461v83.336h-99.785c.58984-29.75 4.5781-57.969 11.324-83.336zm103.56 0h88.461c6.7461 25.367 10.969 53.582 11.559 83.336h-100.02zm100.49 0h74.543c12.566 25.258 19.918 53.449 20.996 83.336h-84.922c-.54687-29.867-4.293-57.965-10.617-83.336zm-311.62 98.445h85.16c.54297 29.84 4.0977 57.793 10.379 83.098h-74.543c-12.484-25.141-19.898-53.355-20.996-83.098zm96.246 0h99.785v83.098h-88.461c-6.7461-25.266-10.73-53.359-11.324-83.098zm114.88 0h100.02c-.58984 29.742-4.8125 57.832-11.559 83.098h-88.461zm111.11 0h84.922c-1.0938 29.746-8.5078 57.961-20.996 83.098h-74.543c6.2812-25.305 10.074-53.258 10.617-83.098zm-293.22 97.973h70.297c12.32 40.957 31.824 73.211 55.199 92.305-53.051-13.082-97.953-46.809-125.5-92.305zm82.801 0h84.215v97.027c-35.699-4.7383-66.535-42.648-84.215-97.027zm99.312.23438h84.215c-17.715 54.34-48.5 92.145-84.215 96.793zm96.484 0h70.297c-27.559 45.355-72.32 79.012-125.26 92.07 23.32-19.051 42.641-51.25 54.965-92.07zm-430.04 90.652c-3.4609.66406-6.1953 4.0312-6.1328 7.5547v219.08c0 3.957 3.5977 7.5547 7.5469 7.5547h113.23c3.9531 0 7.5469-3.5977 7.5508-7.5547v-41.785c33.145-7.6562 60.266-4.9375 89.641 2.125 51.977 12.723 98.504 32.91 138.71 34.938 128.17 0 253.98-84.438 298.18-111.9 12.785-13.035 12.02-29.66 5.8984-40.371-8.5977-13.352-20.742-21.242-38.688-19.594-62.879 18.605-133.5 46.035-202.88 46.035-65.828 0-104.45-13.516-135.17-27.148s-54.316-28.328-87.754-28.328c-22.547 2.8789-45.34 6.4023-67.938 9.6797v-42.73c-.054688-.36328.47266-7.0547-7.5508-7.5547h-114.65zm8.9648 15.109h98.133v203.97h-98.133zm182.35 40.605c28.34.36328 49.199 13.047 80.441 26.914 28.422 12.613 65.039 25.555 121.25 28.094 22.102 4.8008 41.859 17.793 36.328 38.242-3.2773 3.9688-11.754 10.809-27.836 10.625l-156.64-17.707-1.6523 14.871 157.82 17.941c17.68-.17969 31.527-6.6055 39.867-16.289 10.996-18.926 2.1836-36.016-12.266-47.688 67.336-3.4922 132.89-28.535 190.13-45.562 10.398.27344 17.852 3.0938 22.883 12.277 4.0391 6.6914 4.3828 13.488-1.8867 20.301-45.504 28.328-167.69 108.55-288.03 109.07-47.844-6.4531-95.207-24.344-136.35-34.465-29.539-7.1055-58.926-9.582-93.18-2.3594v-104.34c23.027-3.25 46.121-6.8008 69.117-9.9141z" fill="#fff" stroke="#fff" stroke-width="6"/></svg>