<svg fill="none" height="800" viewBox="0 0 24 24" width="800" xmlns="http://www.w3.org/2000/svg"><path d="m12 8.00012-8 7.99998v4h4l8-8m-4-3.99998 2.8686-2.86866.0018-.0017c.3948-.39488.5926-.59267.8206-.66675.2009-.06526.4172-.06526.6181 0 .2278.07403.4254.27159.8197.66591l1.7398 1.7398c.396.39602.5941.59412.6683.82245.0653.20084.0652.41718 0 .61803-.0741.22816-.2719.42596-.6674.82141l-.0009.00085-2.8686 2.86864m-4-3.99998 4 3.99998" stroke="#000" stroke-linecap="round" stroke-linejoin="round" stroke-width="2"/></svg>