<svg viewBox="0 0 100 100" xmlns="http://www.w3.org/2000/svg"><path d="m69.5 47.7074829v-17.7074829c0-.8284271-.6715729-1.5-1.5-1.5s-1.5.6715729-1.5 1.5v17.7076503c-2.3053278.653649-4 2.7755889-4 5.2923497 0 2.5124315 1.6914952 4.6382847 4 5.2925171v11.7074829c0 .8284271.6715729 1.5 1.5 1.5s1.5-.6715729 1.5-1.5v-11.7076503c2.3053278-.653649 4-2.7755889 4-5.2923497 0-2.5124315-1.6914952-4.6382847-4-5.2925171zm-18-15v-2.7074829c0-.8284271-.6715729-1.5-1.5-1.5s-1.5.6715729-1.5 1.5v2.7076503c-2.3053278.653649-4 2.7755889-4 5.2923497 0 2.5124315 1.6914952 4.6382847 4 5.2925171v26.7074829c0 .8284271.6715729 1.5 1.5 1.5s1.5-.6715729 1.5-1.5v-26.7076503c2.3053278-.653649 4-2.7755889 4-5.2923497 0-2.5124315-1.6914952-4.6382847-4-5.2925171zm-18 24v-26.7074829c0-.8284271-.6715729-1.5-1.5-1.5s-1.5.6715729-1.5 1.5v26.7076503c-2.3053278.653649-4 2.7755889-4 5.2923497 0 2.5124315 1.6914952 4.6382847 4 5.2925171v2.7074829c0 .8284271.6715729 1.5 1.5 1.5s1.5-.6715729 1.5-1.5v-2.7076503c2.3053278-.653649 4-2.7755889 4-5.2923497 0-2.5124315-1.6914952-4.6382847-4-5.2925171z" transform="matrix(0 1 -1 0 100 0)"/></svg>