<svg viewBox="0 0 289.2 289.2" xmlns="http://www.w3.org/2000/svg"><g fill="#fff" stroke="#fff"><path d="m142.35 275.21c-73.17 0-132.35-59.46-132.35-132.35s59.19-132.36 132.35-132.36 132.35 59.46 132.35 132.35-59.46 132.35-132.35 132.35zm0-247.54c-64.12 0-112.91 52.07-112.91 116.19s51.07 114.91 114.91 114.91 112.91-51.07 112.91-114.91-51.06-116.19-114.91-116.19z"/><path d="m142.73 71.43c-24.93-.56-45.49 18.28-45.49 43.49 0 4.11 0 10.98 8.4 11.4 7.32.36 9.14-6.3 9.4-10.4 1.18-18.63 11.67-28.66 28.64-28.69 16.39-.03 30.38 12.02 31.65 28.36 1.42 18.19-14.91 32.09-32.72 32.02-4.04-.01-7.27 3.36-7.27 7.4v22.91c0 4.07 4.16 7.59 8.22 7.68 4.19.1 8.19-1.47 8.58-8.4v-12.65c0-1.11.76-2.09 1.85-2.31 20.78-4.29 37.24-20.91 37.24-45.6s-20.29-44.58-48.49-45.21z"/><circle cx="143.59" cy="208.94" r="11.28"/></g></svg>