<?xml version="1.0" encoding="UTF-8"?>
<svg id="Layer_1" data-name="Layer 1" xmlns="http://www.w3.org/2000/svg" viewBox="0 0 289.48 289.48">
  <path d="M212.5,24.05c-29.26,0-36.54,26.18-35.31,42.43,.21,2.8-.37,4.57-2.83,5.93l-68.22,39.74c-1.97,1.09-3.38,.96-5.23-.32-6.7-4.64-14.74-6.94-24.12-6.92-23.11,.04-41.43,20.41-37.63,43.21,3.04,18.24,19.16,31.74,38.46,31.74,10.16,0,19.64-5.12,25.03-8.75,.25-.17,.56-.18,.82-.03,6.36,3.53,60.76,33.71,71.3,39.56,.84,.47,1.28,1.45,1.03,2.38-4.17,15.68,2.21,32.82,19.17,41.16,17.51,8.62,36.29,2.71,46.74-13.2s7.31-40.16-12.78-50.6c-19.86-10.32-36.28-2.66-43.89,4.96-.82,.82-2.08,1.03-3.1,.48l-69.24-37.46c-.98-.54-1.34-1.76-.85-2.76,2.21-4.51,2.75-8.78,2.75-14.7s-.25-7.14-2.39-14.86c-.05-.18,.02-.37,.18-.47,4.26-2.48,57.83-34.69,69.2-41.32,1.07-.62,2.41-.55,3.4,.19,12.04,9.06,19.62,10.28,30.06,9.97,17.11-.51,33.97-14.83,33.97-36.35,0-16.49-12.32-34.01-36.52-34.01Z"/>
</svg>