<svg xmlns="http://www.w3.org/2000/svg" xmlns:xlink="http://www.w3.org/1999/xlink" version="1.1" x="0px" y="0px" viewBox="0 0 50 50" enable-background="new 0 0 50 50" xml:space="preserve"><path d="M43.167,27.559l-5.94-2.288l5.912-2.138c0.938-0.339,1.048-1.005,1.05-1.274c0.003-0.271-0.091-0.938-1.022-1.297  L25.94,13.926c-0.37-0.143-0.844-0.221-1.332-0.221c-0.32,0-0.797,0.034-1.24,0.194L6.863,19.867  c-0.938,0.339-1.048,1.005-1.05,1.275c-0.003,0.271,0.091,0.938,1.023,1.297l5.945,2.291L6.86,26.869  c-0.938,0.34-1.048,1.006-1.05,1.275c-0.003,0.271,0.091,0.938,1.022,1.297l17.224,6.631c0.384,0.148,0.858,0.223,1.331,0.223  c0.441,0,0.881-0.064,1.242-0.195l16.51-5.971c0.938-0.338,1.048-1.004,1.05-1.273C44.192,28.584,44.1,27.916,43.167,27.559z   M24.047,15.78c0.211-0.075,0.966-0.068,1.175,0.012l15.656,6.032l-14.924,5.395c-0.209,0.076-0.964,0.07-1.175-0.012L9.124,21.175  L24.047,15.78z M25.95,34.219c-0.29,0.105-0.883,0.102-1.175-0.012L9.121,28.18l6.509-2.354l8.432,3.248  c0.37,0.143,0.844,0.221,1.332,0.221c0.321,0,0.797-0.033,1.241-0.193l7.721-2.791l6.524,2.512L25.95,34.219z"></path></svg>