<svg enable-background="new 0 0 131 64.8" viewBox="0 0 131 64.8" xmlns="http://www.w3.org/2000/svg"><g fill="#fff"><path d="m7.1 8h72.3l2.6-1.9 1.1.8.3-2.7 2.4-.9 1.9.2 1.1-1.9 5.1-1.6 1.4.9h1.1l.3 1.4-1.3.5.2 1.1.9-.5 2.2 5.2-13 15.3 12.4 8.2 4.2 6.6 1.7 2 3.8.8.8 5.7 4.9 2.7 3.9-.2-1.4 1.3 2.7-.3 1.7-1.3 7.2-2.2.3-3.9-1.3-2.7-1.4 2.2-.3-5.2-4.1-2.2-.2 1.9-1.7-2.2 1.3-.9 4.6 1.3 3.6 4.4 2 5.3.5 6.1-1.1-3-1.1 2 1.6 1.6s-.1.9-.3 2c-.2 1.6-.5 3.5-.5 3.5l-1.4.3.9-4.1-.8-.8-12.6 1.7-.8 1.3-1.7.2.6-1.4-1.7 1.6-.8 2.4-5.7.5-1.9 1.1.8-2 .3-4.1.8-2.2-1.7-2.2-4.9 5.5-3.6.5-2.4 2.2 1.4 1.6-2.4 1.9-4.1.3-.9-4.7-5.3-7.2-2.4-.5v-5.3h-2.4l.2-4.7h-77z" opacity=".6"/><path d="m66.9 18.2-.5 3 2 1.2-.6 1.9 2.4 3-1.3 1v2.5l1.1.3.2 2.5 2.5 2.5.3 2.7 3.8.3 2.8-1.7 1.1.9 7.9-3.6-.7-1.4 1-.8 1.1 1.1 1.7-.9h1.3l2 2.6 1.1-.4.6 2.8 5.9.9.6-1.4 1.1.8-1.3 1.4 2.6-1.1-1.9-2.8-3-5.3-2.1-2.1-3.3-1.4-1.2-1.4-1.9.6 1.4.6.5 1.1-1.9.2-.5-1.1-.6.6-1-.8.7-.8-1.6-.1 1.1-1.4 1.7-.7-.9-2.5.8-1.5.3 1.2h1.6l-.7-1.1.2-.8h1.4l.5-.9 1.5-.8-1.7-1.7 5.5-1.8 1.4-1.5v1.2l1.1-.3.5-1.7 1.3-.8v-1.4l-1.3.4v-1.1h-1.4l-.9 1.5-2.7.4.8-.9-1.8-.6-.4-1.1-.8.3-.5-1.1-4.9 2.3-.1 2.4-1.8-.6-2.2 1.5h-1.7l-1.1-.4-.9 1.4-1.3.9v1.9l-2.4-.3-1.2-1.3h-1.7l-1 1.3h-1.4l-1.6-2.4-1.9 1.5.2 2-1 .8.5 1.1-1.6.1z"/><path d="m.2 64.4h4.1v-16.9l7.4 11h.1l7.4-11.1v16.9h4.1v-23.5h-4.3l-7.2 11.1-7.2-11.1h-4.4zm27.6 0h4.2l2.4-5.7h11.1l2.4 5.7h4.4l-10.3-23.8h-3.8zm8.2-9.4 4-9.4 4.1 9.4zm20.8 9.4h4.2v-7.6h4.7c5.2 0 9.4-2.8 9.4-8v-.1c0-4.7-3.5-7.9-9-7.9h-9.3zm4.2-11.4v-8.5h4.8c3.1 0 5.1 1.4 5.1 4.2v.1c0 2.5-2 4.2-5.1 4.2zm29.7 11.8c4.4 0 7.1-1.6 9.6-4.2l-2.7-2.7c-2 1.9-3.9 3.1-6.8 3.1-4.5 0-7.8-3.8-7.8-8.4v-.1c0-4.6 3.3-8.3 7.8-8.3 2.7 0 4.7 1.2 6.6 2.9l2.7-3.1c-2.3-2.2-4.9-3.7-9.2-3.7-7.1 0-12.2 5.5-12.2 12.2v.1c0 6.8 5.1 12.2 12 12.2z"/></g></svg>