<svg version="1.1" id="Layer_1" xmlns="http://www.w3.org/2000/svg" xmlns:xlink="http://www.w3.org/1999/xlink" x="0px" y="0px"
	 width="100%" viewBox="0 0 828 455" enable-background="new 0 0 828 455" xml:space="preserve">
<path fill="#FFFFFF" opacity="0" stroke="none" 
	d="
M628.000000,456.000000 
	C418.666656,456.000000 209.833328,456.000000 1.000000,456.000000 
	C1.000000,304.333344 1.000000,152.666672 1.000000,1.000000 
	C277.000000,1.000000 553.000000,1.000000 829.000000,1.000000 
	C829.000000,152.666672 829.000000,304.333344 829.000000,456.000000 
	C762.166687,456.000000 695.333313,456.000000 628.000000,456.000000 
M517.859253,312.004852 
	C517.859253,324.228424 517.859253,336.451965 517.859253,349.642944 
	C521.484863,347.535309 525.960693,352.093262 527.697998,346.341187 
	C534.161865,351.782806 540.436279,357.474457 547.161621,362.571014 
	C551.112427,365.564941 552.894531,368.941528 553.087830,373.847687 
	C553.432800,382.603607 554.109009,391.360474 555.044495,400.074249 
	C555.664734,405.851440 559.745605,408.358368 565.570618,407.301788 
	C569.959961,406.505615 574.338684,405.438354 578.767761,405.114105 
	C592.209045,404.130066 603.421509,400.240387 607.877441,385.678894 
	C608.368347,384.074585 611.184387,382.360016 613.078247,382.157562 
	C619.298584,381.492523 624.673706,379.596649 628.828491,374.705963 
	C631.727539,371.293549 634.604065,367.814148 637.890198,364.800415 
	C639.338867,363.471863 642.312256,362.090942 643.658691,362.723419 
	C646.446716,364.033081 647.905945,366.965881 646.342834,370.305267 
	C644.233948,374.810699 641.886108,379.206329 639.846008,383.741394 
	C637.336975,389.318970 634.609680,394.855499 632.770081,400.661163 
	C630.900696,406.560883 635.504944,412.585236 641.495117,411.797760 
	C646.237976,411.174286 651.150085,409.420990 655.256104,406.953217 
	C661.036255,403.479340 665.664673,397.904144 671.644592,394.990662 
	C680.769348,390.544983 687.241028,383.929688 692.209717,375.482025 
	C697.061218,367.233582 703.376160,364.411652 712.769104,366.808838 
	C724.840759,369.889740 736.253601,370.476257 748.656738,365.782532 
	C758.711487,361.977417 770.377197,362.420593 781.331482,361.003174 
	C795.163574,359.213409 799.316040,361.355896 798.866638,343.295563 
	C798.550293,330.580475 797.704041,317.789185 795.822266,305.222412 
	C792.646301,284.012878 785.827209,264.006409 773.184326,246.286758 
	C765.243774,235.157715 755.006409,228.132065 741.046387,226.140625 
	C738.340576,212.280396 730.389282,202.311508 717.534790,196.971054 
	C701.653931,190.373322 687.264526,194.260559 673.938232,206.231323 
	C673.938232,201.978317 673.938232,198.771378 673.938232,195.394928 
	C663.400330,195.394928 653.386963,195.394928 643.297791,195.394928 
	C643.297791,200.374390 643.297791,204.954788 643.297791,209.756256 
	C645.085510,209.940567 646.545593,210.091095 648.101929,210.906342 
	C649.286743,213.037140 650.762878,215.060394 651.597351,217.320541 
	C653.493591,222.456619 655.074341,227.709152 656.854126,233.811890 
	C656.782959,236.208099 656.711792,238.604309 656.000366,240.831345 
	C654.672974,238.414413 652.864624,236.138260 652.108154,233.554199 
	C649.824524,225.752731 647.666321,217.973953 642.130798,211.661835 
	C638.973694,208.061813 635.442078,204.657486 632.961731,200.622528 
	C626.531067,190.161453 618.998840,188.201859 608.178528,194.988861 
	C600.120300,194.334839 592.062073,193.680817 583.724426,192.367767 
	C577.200623,179.905045 578.459106,176.543747 585.855896,168.848785 
	C589.129211,165.443542 593.530701,163.129059 597.391846,160.281204 
	C604.358032,155.143158 612.590942,152.041046 617.785950,144.125946 
	C625.253235,132.748596 636.928589,127.125069 650.208069,125.054848 
	C655.320801,124.257790 661.673767,119.987358 661.779358,115.559860 
	C661.924561,109.475464 661.779541,103.194611 660.412354,97.310837 
	C658.637695,89.673973 652.400818,87.797096 645.312988,91.820831 
	C644.011414,92.559769 642.662476,93.222763 641.303589,93.852158 
	C635.129639,96.711754 631.668518,95.421158 629.963867,88.971840 
	C628.834534,84.699371 628.458069,80.200134 628.035645,75.774620 
	C627.250427,67.549042 627.258850,59.201794 625.844177,51.095890 
	C624.574524,43.821190 619.595886,39.071960 611.989502,38.022289 
	C607.413513,37.390804 602.764099,37.165760 598.139954,37.037590 
	C591.571899,36.855534 586.375305,39.450706 582.425171,44.877743 
	C577.869385,51.136986 573.671204,58.302845 564.808105,58.902283 
	C555.400757,59.538532 549.726624,65.373589 543.942810,71.797829 
	C540.135742,76.026375 535.843506,80.678268 530.790161,82.725517 
	C522.956055,85.899330 514.375183,87.955872 505.948303,88.741188 
	C497.105042,89.565315 488.072754,88.201378 479.118500,88.026703 
	C457.842743,87.611641 436.564240,87.335541 415.286896,87.000916 
	C394.176056,86.668892 373.065308,86.334793 351.954498,86.000107 
	C331.010284,85.668076 310.066437,85.306938 289.121735,85.008087 
	C263.680481,84.645065 238.239288,84.245934 212.796661,84.028809 
	C193.309952,83.862518 173.819901,84.066071 154.333801,83.865150 
	C148.291992,83.802849 145.391312,85.505470 143.960159,91.339737 
	C141.752609,100.339035 139.502594,109.328514 137.378891,118.347649 
	C134.194901,131.869781 131.104706,145.414001 127.041199,158.986816 
	C96.814247,158.986816 66.587288,158.986816 36.337448,158.986816 
	C36.337448,174.040543 36.337448,188.275009 36.337448,202.540131 
	C41.708302,202.540131 46.733189,202.540131 52.268562,202.540131 
	C52.268562,193.173264 52.268562,184.262848 52.268562,175.340393 
	C60.040771,175.340393 67.279648,175.340393 74.560837,175.340393 
	C74.560837,204.026886 74.560837,232.370743 74.560837,261.239136 
	C69.545059,261.239136 64.963669,261.239136 60.328094,261.239136 
	C60.328094,266.679749 60.328094,271.585449 60.328094,276.967102 
	C76.429604,276.967102 92.208168,276.967102 108.560989,277.583923 
	C117.323654,277.722198 126.086105,277.917114 134.849167,277.950134 
	C136.565186,277.956604 138.283539,277.336090 140.937561,277.038666 
	C157.299194,277.047424 173.660828,277.056213 190.615417,277.640503 
	C205.180054,277.664459 219.744690,277.688416 235.156204,277.772186 
	C248.219742,280.830414 259.417145,276.663849 270.117126,268.048126 
	C270.117126,271.412811 270.117126,273.973572 270.117126,277.068451 
	C278.981293,277.068451 287.418182,277.183411 295.840851,276.890686 
	C296.683411,276.861359 297.439880,274.355927 299.035400,273.000000 
	C300.634949,273.001129 302.234528,273.002258 304.233612,273.696716 
	C304.720886,276.434540 306.290070,277.216492 309.076935,277.170349 
	C319.795410,276.992798 330.524078,276.904388 341.236786,277.209534 
	C344.732178,277.309113 346.357849,276.057495 347.939026,273.001099 
	C349.227417,273.000732 350.515839,273.000336 351.941467,273.845154 
	C351.738098,276.978851 353.724701,277.137238 356.118927,277.125214 
	C368.019958,277.065369 379.922791,276.997223 391.821747,277.164825 
	C395.020111,277.209839 396.452179,276.187073 397.061249,273.000031 
	C399.299774,273.000000 401.538269,272.999939 403.894989,273.855774 
	C404.954620,274.935028 405.985718,276.921783 407.078247,276.956116 
	C421.301086,277.403442 435.532684,277.573944 450.739777,277.941711 
	C456.559235,277.910431 462.378662,277.879181 469.109497,277.881287 
	C478.696136,277.887543 488.282745,277.893829 498.740631,277.981323 
	C502.984772,277.443390 504.100433,279.497803 504.094513,283.495697 
	C504.084991,289.921082 504.324738,296.398193 505.233063,302.742645 
	C505.509369,304.672516 508.087494,306.627319 510.054382,307.868805 
	C512.380005,309.336639 515.185425,310.044281 517.859253,312.004852 
M413.999878,344.359833 
	C413.999878,335.826111 413.999878,327.292389 413.999878,317.289001 
	C419.339294,325.012390 423.771576,331.423584 428.528076,338.303833 
	C433.373749,331.053162 437.823425,324.395020 442.273102,317.736877 
	C442.612915,317.893921 442.952698,318.050964 443.292480,318.208038 
	C443.292480,328.309906 443.292480,338.411804 443.292480,348.542725 
	C446.696320,348.542725 449.720459,348.542725 453.283447,348.542725 
	C452.762451,332.202118 452.256561,316.335205 451.753082,300.544250 
	C443.099823,299.232513 443.189178,299.287903 438.852692,306.284973 
	C435.603912,311.527069 432.087158,316.603088 428.423462,322.156555 
	C424.784485,316.660706 421.534515,311.704773 418.235474,306.781769 
	C413.843903,300.228455 412.407318,299.724396 404.935730,301.628418 
	C404.935730,317.760590 404.935730,333.745453 404.935730,349.798096 
	C408.333710,349.798096 410.794922,349.798096 413.660370,349.798096 
	C413.781830,348.194000 413.890717,346.756378 413.999878,344.359833 
M499.497559,342.995789 
	C502.594360,349.774414 503.431152,350.143951 512.262878,348.166931 
	C505.097198,332.279510 498.097260,316.474030 490.689728,300.861908 
	C490.077881,299.572418 486.645813,299.004517 484.630127,299.199127 
	C483.107971,299.346069 481.122772,300.950775 480.435638,302.418030 
	C477.360657,308.984131 474.658478,315.725739 471.856781,322.418640 
	C468.247986,331.039673 464.672638,339.674713 460.773804,349.046661 
	C464.907990,348.063843 470.066040,351.592438 471.406036,346.616272 
	C473.742523,337.939667 479.030304,335.904572 486.883575,336.971436 
	C488.353210,337.171082 489.908600,337.208313 491.363342,336.960968 
	C495.759155,336.213684 498.291809,337.964081 499.497559,342.995789 
M365.027985,309.481445 
	C366.350311,310.021576 368.757172,310.456757 368.821228,311.118652 
	C369.281342,315.873871 372.766693,316.729065 375.865173,315.599670 
	C377.645050,314.950897 379.484467,311.294312 379.308624,309.155243 
	C379.004578,305.456207 375.185699,304.167267 371.195312,305.408051 
	C370.184479,305.722351 368.999603,305.529724 367.897827,305.487946 
	C365.399536,305.393188 362.903229,305.247314 360.557251,305.129791 
	C360.557251,308.970062 360.557251,312.278656 360.557251,315.561676 
	C362.687347,315.561676 364.676208,315.561676 366.661102,315.561676 
	C366.025848,313.486359 365.515198,311.818146 365.027985,309.481445 
M380.283875,313.659332 
	C385.996918,314.263580 391.709961,314.867828 397.423004,315.472046 
	C397.672546,314.904968 397.922119,314.337891 398.171692,313.770813 
	C393.298767,312.485138 399.212341,305.247070 392.527496,305.035706 
	C388.493347,304.908142 384.451904,305.012207 380.588654,305.012207 
	C380.588654,308.069397 380.588654,310.478577 380.283875,313.659332 
z"/>
<path fill="#FFFFFF" opacity="1.000000" stroke="none" 
	d="
M351.804230,272.999969 
	C350.515839,273.000336 349.227417,273.000732 347.489624,272.543030 
	C347.040222,268.833496 347.040222,265.582031 347.040222,261.825134 
	C342.275604,261.825134 338.359650,261.825134 333.780884,261.825134 
	C333.780884,239.286346 333.780884,217.266129 333.780884,195.390717 
	C323.851593,195.390717 314.612823,195.390717 305.332916,195.390717 
	C305.332916,200.359451 305.332916,204.933258 305.332916,209.735336 
	C309.358002,209.938660 313.069824,210.126160 316.616241,210.305298 
	C316.616241,227.812302 316.616241,244.710648 316.616241,262.125549 
	C312.323730,262.125549 308.403656,262.125549 303.834076,262.125549 
	C303.834076,266.095428 303.834076,269.549408 303.834076,273.003387 
	C302.234528,273.002258 300.634949,273.001129 298.547485,272.544373 
	C298.059540,268.836029 298.059540,265.583282 298.059540,261.824036 
	C293.276123,261.824036 289.358551,261.824036 285.000000,261.824036 
	C285.000000,259.334442 285.039215,257.369476 284.993744,255.406464 
	C284.670715,241.467178 284.931122,227.478516 283.781616,213.607025 
	C283.030914,204.548462 277.854614,197.662903 268.520844,194.766861 
	C257.808655,191.443085 247.109467,191.531128 236.535767,195.046234 
	C227.723602,197.975723 221.134109,203.640106 216.950470,212.455017 
	C221.254440,213.557892 225.238052,214.451752 229.138901,215.621567 
	C231.869995,216.440582 233.643097,215.978683 235.910843,213.873871 
	C238.837494,211.157516 242.508484,208.429825 246.277405,207.593964 
	C255.796097,205.482971 265.208862,207.510452 267.649200,218.756180 
	C268.515137,222.746490 267.787811,227.082565 267.787811,231.536026 
	C256.472809,225.233826 244.433456,224.097427 233.320908,228.030853 
	C218.513184,233.272263 211.748520,249.651047 218.944901,263.547760 
	C220.731125,266.997101 223.648392,269.860779 225.572723,272.996155 
	C213.748444,272.997955 202.397171,272.997253 191.029999,272.534973 
	C191.014084,268.824646 191.014084,265.575928 191.014084,261.823242 
	C184.605835,261.823242 179.028061,261.823242 172.548111,261.823242 
	C173.048309,250.882111 173.277039,240.475327 174.066528,230.111267 
	C174.875793,219.487274 179.531937,214.221069 189.940948,212.092148 
	C195.041428,211.048950 200.339172,210.970230 205.721375,210.437805 
	C205.721375,204.724380 205.721375,199.149551 205.721375,193.230118 
	C191.467239,193.610626 177.803497,194.363754 169.741806,208.871964 
	C169.741806,204.428619 169.741806,199.985275 169.741806,194.952148 
	C159.733566,194.952148 150.065262,194.952148 140.323654,194.952148 
	C140.323654,199.673447 140.323654,204.579483 140.323654,210.182922 
	C145.667969,210.182922 150.709045,210.182922 155.632996,210.182922 
	C155.632996,227.781677 155.632996,244.675095 155.632996,262.085297 
	C150.363754,262.085297 145.443802,262.085297 139.882858,262.085297 
	C139.882858,266.047607 139.882858,269.496338 139.424896,272.965057 
	C133.202957,272.990417 127.435394,273.122009 121.676147,272.959320 
	C117.451492,272.839935 113.237732,272.334656 109.012474,271.547974 
	C108.684387,267.692780 108.362938,264.290955 108.028076,260.486633 
	C109.537971,253.317520 111.044914,246.547241 112.588188,239.785248 
	C115.382103,227.543442 118.197678,215.306580 121.465439,203.043747 
	C125.160667,203.019836 128.394653,203.019836 131.884140,203.019836 
	C131.884140,187.868637 131.884140,173.511566 131.929169,158.740250 
	C133.657379,151.243851 135.309891,144.154221 137.030167,137.081100 
	C140.549866,122.609283 144.073685,108.138321 147.665955,93.684433 
	C148.803650,89.106827 151.508148,86.638405 156.614319,86.948227 
	C165.220932,87.470467 173.844803,87.774666 182.465958,87.976959 
	C199.910583,88.386284 217.358353,88.660858 234.804642,89.000526 
	C251.584900,89.327225 268.364960,89.664711 285.145050,89.999733 
	C301.758636,90.331421 318.371155,90.732826 334.985962,90.983803 
	C360.926666,91.375656 386.869781,91.613548 412.810028,92.030693 
	C421.098145,92.163986 429.379211,92.898972 437.665710,92.943207 
	C462.396515,93.075233 487.136505,93.389923 511.857056,92.873032 
	C528.726196,92.520317 542.610229,85.602951 552.085693,70.964493 
	C554.638977,67.019974 557.908386,64.282516 563.301270,63.774723 
	C572.260864,62.931080 579.891052,58.445190 585.093140,51.128727 
	C589.793884,44.517319 595.349121,41.680866 603.552002,41.830147 
	C616.413025,42.064205 622.424377,49.208611 623.035217,61.359737 
	C623.516907,70.940498 623.966797,80.545845 625.074524,90.065361 
	C626.075623,98.669052 633.884521,102.416634 641.762146,98.609482 
	C644.143677,97.458511 646.442139,96.136993 648.798584,94.932510 
	C652.128784,93.230247 654.961426,93.886658 655.732300,97.657364 
	C656.814148,102.949310 657.829956,108.397697 657.687439,113.747566 
	C657.589905,117.411003 654.895325,120.716095 650.613098,120.936234 
	C633.395081,121.821358 621.339844,131.039169 611.696960,144.432037 
	C610.576294,145.988556 608.883118,147.216248 607.265625,148.317719 
	C599.186890,153.819122 590.880371,159.001190 582.978577,164.742294 
	C576.977844,169.102112 573.529724,175.174957 575.120422,182.871399 
	C575.915588,186.718903 577.729431,190.355865 578.844971,194.367981 
	C568.560486,197.130264 561.404785,203.030197 556.586487,212.992554 
	C561.917969,214.411026 566.611450,216.488342 571.338379,216.567215 
	C573.695374,216.606567 576.113647,212.988907 578.503662,211.024796 
	C584.891541,205.775391 599.103333,205.950745 603.926453,212.424973 
	C608.263611,218.246887 607.992981,224.866882 607.839478,232.408585 
	C599.669189,227.843063 591.796875,225.284836 583.081665,225.965973 
	C570.626892,226.939331 555.526855,235.850555 555.616882,253.398285 
	C555.678711,265.434143 568.403259,278.812653 581.592407,279.090240 
	C591.858948,279.306366 600.552185,275.760590 608.788635,269.216400 
	C608.959534,272.359253 609.098450,274.914215 609.243896,277.589172 
	C618.948059,277.589172 628.304382,277.589172 637.648193,277.589172 
	C637.648193,272.266235 637.648193,267.361450 637.648193,261.937500 
	C633.061340,261.937500 628.809021,261.937500 624.267761,261.937500 
	C624.162048,259.819702 624.013977,258.196686 624.010803,256.573364 
	C623.989929,245.754364 623.718384,234.926041 624.073486,224.118652 
	C624.489624,211.451035 621.333984,200.927429 608.998840,195.001877 
	C618.998840,188.201859 626.531067,190.161453 632.961731,200.622528 
	C635.442078,204.657486 638.973694,208.061813 642.130798,211.661835 
	C647.666321,217.973953 649.824524,225.752731 652.108154,233.554199 
	C652.864624,236.138260 654.672974,238.414413 656.438293,241.373566 
	C656.876221,260.830139 656.876221,279.744507 656.876221,299.180664 
	C651.603821,299.180664 647.017212,299.180664 642.303894,299.180664 
	C642.303894,304.290710 642.303894,308.866486 642.303894,314.118805 
	C655.383728,314.118805 668.166748,314.118805 681.006409,314.462830 
	C685.027588,323.860962 692.391113,329.455322 701.105286,333.014587 
	C709.332520,336.374969 718.073059,335.972778 726.944580,335.179657 
	C738.525696,334.144257 749.396240,331.331512 759.708435,326.116913 
	C765.518982,323.178680 769.782410,318.488739 770.766235,312.211945 
	C771.913086,304.895905 771.904724,297.358429 771.900818,289.917297 
	C771.898376,285.373169 770.383423,281.021515 766.389038,278.239868 
	C760.621216,274.223206 757.263611,269.296051 756.793579,261.846710 
	C756.186951,252.232834 749.137207,249.538666 741.194641,255.183533 
	C740.567078,255.629623 739.674683,255.703278 738.943298,255.557007 
	C742.006226,247.374710 742.340149,239.242065 742.449463,231.068604 
	C745.857483,231.885437 749.085571,232.219009 751.858643,233.521332 
	C763.765259,239.113129 770.979858,249.516022 776.604614,260.582581 
	C790.788330,288.489044 795.712219,318.442383 793.979187,349.575592 
	C793.775635,353.231628 791.819275,355.539307 788.172363,355.924286 
	C780.613281,356.722260 772.994080,357.037994 765.472412,358.078369 
	C757.811279,359.138031 749.684509,359.561951 742.770813,362.577789 
	C734.805237,366.052490 727.560364,366.276062 719.715637,363.793060 
	C718.138611,363.293915 716.549072,362.698273 714.923340,362.510498 
	C701.923828,361.009186 692.685486,361.337830 686.024292,375.560974 
	C684.279114,379.287354 681.246704,382.726349 678.050720,385.392731 
	C671.210083,391.099915 664.050964,396.473358 656.677673,401.475555 
	C652.466248,404.332642 647.702332,406.504150 642.954407,408.401886 
	C638.995300,409.984344 635.820374,407.606842 636.130859,403.336578 
	C636.340088,400.458832 637.401306,397.512817 638.649780,394.865417 
	C642.329041,387.063385 646.395752,379.444550 650.103333,371.655212 
	C652.312988,367.012573 650.819641,361.993286 646.644165,359.402924 
	C642.502563,356.833618 638.681091,357.619293 635.418762,361.104950 
	C632.247070,364.493652 629.475830,368.333588 625.959290,371.300415 
	C622.765747,373.994690 618.974121,377.205688 615.147339,377.657471 
	C608.129700,378.485992 603.730591,381.316101 601.527222,387.894287 
	C601.108398,389.144562 600.346497,390.277039 599.779663,391.481201 
	C597.714539,395.868134 594.396912,398.296906 589.490662,399.069733 
	C581.664124,400.302460 573.898865,401.933655 566.121765,403.467712 
	C561.582092,404.363190 558.262756,402.009796 558.034485,397.330597 
	C557.606323,388.553131 557.278687,379.769592 557.023682,370.985291 
	C556.894775,366.543518 555.284546,363.362976 551.509766,360.562805 
	C544.519836,355.377594 538.048950,349.490509 531.392822,343.859070 
	C529.934631,342.625366 528.606384,341.238098 527.170166,339.482361 
	C527.122131,337.142151 527.122131,335.241089 527.122131,332.998413 
	C531.449951,332.998413 535.081970,333.096222 538.707031,332.979156 
	C547.761475,332.686737 555.291199,326.251373 556.012634,318.491852 
	C556.861816,309.358368 551.986938,300.922180 542.421265,300.004395 
	C536.033752,299.391510 529.579834,299.489807 523.183655,298.942261 
	C518.486389,298.540161 516.220581,300.081238 516.573853,304.952179 
	C508.999725,302.777191 509.000061,302.777191 508.998627,294.846283 
	C508.997925,290.864655 509.507202,286.801544 508.888519,282.918213 
	C507.566895,274.622467 508.840088,272.940216 499.066101,272.502380 
	C499.030029,268.795502 499.030029,265.546875 499.030029,261.786804 
	C493.902710,261.786804 489.652710,261.786804 485.000549,261.786804 
	C485.000549,250.123154 485.581024,238.946228 484.793762,227.866501 
	C484.280090,220.637314 487.371002,216.741028 493.134766,214.002426 
	C496.858551,212.233093 500.664612,210.532150 504.595673,209.329849 
	C509.733826,207.758408 515.956787,211.116287 516.768921,215.968170 
	C517.557068,220.676804 517.967407,225.511108 517.921631,230.284241 
	C517.818237,241.066940 517.284973,251.844818 517.020691,262.626984 
	C516.899475,267.571259 517.000000,272.521027 517.000000,277.567627 
	C527.985291,277.567627 538.345642,277.567627 548.620361,277.567627 
	C548.620361,272.216400 548.620361,267.306915 548.620361,261.876404 
	C543.666199,261.876404 539.077393,261.876404 534.000122,261.876404 
	C534.000122,259.566254 534.000122,257.770264 534.000122,255.974304 
	C534.000122,241.976974 534.015869,227.979599 533.978699,213.982376 
	C533.974365,212.341766 533.921753,210.633148 533.480103,209.072479 
	C529.729248,195.818222 518.841248,191.736450 506.460175,194.602509 
	C498.220551,196.509827 490.587799,201.038849 482.748169,204.366974 
	C468.386322,185.534576 452.258362,194.832932 436.186584,203.104370 
	C436.019623,200.458405 435.856812,197.878311 435.698029,195.361725 
	C425.249481,195.361725 415.342163,195.361725 405.308533,195.361725 
	C405.308533,200.302856 405.308533,204.878922 405.308533,210.159546 
	C409.976196,210.159546 414.347961,210.159546 418.620605,210.159546 
	C418.620605,227.779144 418.620605,244.686935 418.620605,262.117188 
	C413.665680,262.117188 409.075714,262.117188 403.776794,262.117188 
	C403.776794,266.091705 403.776794,269.545776 403.776794,272.999878 
	C401.538269,272.999939 399.299774,273.000000 396.558380,272.543762 
	C396.055511,268.834686 396.055511,265.581848 396.055511,261.823242 
	C391.608887,261.823242 388.022858,261.823242 383.781189,261.823242 
	C383.781189,227.285797 383.781189,193.270981 383.781189,159.390915 
	C372.854523,159.390915 362.614868,159.390915 352.335449,159.390915 
	C352.335449,164.360245 352.335449,168.934326 352.335449,174.209198 
	C357.360535,174.209198 362.064758,174.209198 366.617645,174.209198 
	C366.617645,203.811905 366.617645,232.706024 366.617645,262.121765 
	C361.660553,262.121765 357.072815,262.121765 351.804230,262.121765 
	C351.804230,266.087677 351.804230,269.543823 351.804230,272.999969 
M599.864807,312.271545 
	C602.343018,310.395477 604.821167,308.519409 607.177124,306.735870 
	C602.610229,298.302063 588.845886,296.205750 579.859009,298.968201 
	C567.128174,302.881592 562.311462,312.256012 562.181030,323.629517 
	C562.061096,334.085938 568.425537,344.300568 578.908997,347.466797 
	C590.814514,351.062469 601.405457,348.056122 607.414429,339.274658 
	C604.512146,335.001251 601.822876,332.745148 596.405579,336.877686 
	C593.406616,339.165405 588.235962,339.933228 584.317688,339.395050 
	C577.487732,338.456879 572.688782,331.532867 572.018738,323.887756 
	C571.528625,318.295715 576.055481,310.861572 581.578308,308.188568 
	C587.164062,305.485046 594.140381,306.918457 599.864807,312.271545 
M316.042145,162.896194 
	C313.553894,169.861038 315.644714,175.035965 321.908691,177.416183 
	C326.986511,179.345688 332.687775,176.837418 334.557190,171.851486 
	C336.586914,166.438004 334.584137,160.472244 330.109314,158.602356 
	C325.533752,156.690369 320.370575,158.045715 316.042145,162.896194 
z"/>
<path fill="#1e68ad" opacity="1.000000" stroke="none" 
	d="
M403.835876,273.427826 
	C403.776794,269.545776 403.776794,266.091705 403.776794,262.117188 
	C409.075714,262.117188 413.665680,262.117188 418.620605,262.117188 
	C418.620605,244.686935 418.620605,227.779144 418.620605,210.159546 
	C414.347961,210.159546 409.976196,210.159546 405.308533,210.159546 
	C405.308533,204.878922 405.308533,200.302856 405.308533,195.361725 
	C415.342163,195.361725 425.249481,195.361725 435.698029,195.361725 
	C435.856812,197.878311 436.019623,200.458405 436.186584,203.104370 
	C452.258362,194.832932 468.386322,185.534576 482.748169,204.366974 
	C490.587799,201.038849 498.220551,196.509827 506.460175,194.602509 
	C518.841248,191.736450 529.729248,195.818222 533.480103,209.072479 
	C533.921753,210.633148 533.974365,212.341766 533.978699,213.982376 
	C534.015869,227.979599 534.000122,241.976974 534.000122,255.974304 
	C534.000122,257.770264 534.000122,259.566254 534.000122,261.876404 
	C539.077393,261.876404 543.666199,261.876404 548.620361,261.876404 
	C548.620361,267.306915 548.620361,272.216400 548.620361,277.567627 
	C538.345642,277.567627 527.985291,277.567627 517.000000,277.567627 
	C517.000000,272.521027 516.899475,267.571259 517.020691,262.626984 
	C517.284973,251.844818 517.818237,241.066940 517.921631,230.284241 
	C517.967407,225.511108 517.557068,220.676804 516.768921,215.968170 
	C515.956787,211.116287 509.733826,207.758408 504.595673,209.329849 
	C500.664612,210.532150 496.858551,212.233093 493.134766,214.002426 
	C487.371002,216.741028 484.280090,220.637314 484.793762,227.866501 
	C485.581024,238.946228 485.000549,250.123154 485.000549,261.786804 
	C489.652710,261.786804 493.902710,261.786804 499.030029,261.786804 
	C499.030029,265.546875 499.030029,268.795502 498.905121,272.835693 
	C498.476593,275.051544 498.172974,276.475830 497.869385,277.900116 
	C488.282745,277.893829 478.696136,277.887543 468.603149,277.461914 
	C468.029236,275.678955 467.961670,274.315430 467.934082,272.488831 
	C467.982422,255.207733 468.021790,238.389633 467.988007,221.571686 
	C467.966248,210.748856 462.441864,206.752151 452.239166,210.475266 
	C448.089294,211.989639 444.258484,214.379654 440.285736,216.377747 
	C437.011688,218.024414 435.765167,220.437088 435.887573,224.320084 
	C436.218018,234.800171 436.000671,245.297516 436.000671,255.788025 
	C436.000671,257.716675 436.000671,259.645325 436.000671,262.089905 
	C440.972870,262.089905 445.227295,262.089905 450.077393,262.089905 
	C450.077393,266.053253 450.077393,269.507965 450.026794,273.367889 
	C449.904846,275.120117 449.833466,276.467102 449.762085,277.814148 
	C435.532684,277.573944 421.301086,277.403442 407.078247,276.956116 
	C405.985718,276.921783 404.954620,274.935028 403.835876,273.427826 
z"/>
<path fill="#1e68ad" opacity="1.000000" stroke="none" 
	d="
M680.949829,314.118805 
	C668.166748,314.118805 655.383728,314.118805 642.303894,314.118805 
	C642.303894,308.866486 642.303894,304.290710 642.303894,299.180664 
	C647.017212,299.180664 651.603821,299.180664 656.876221,299.180664 
	C656.876221,279.744507 656.876221,260.830139 656.758423,241.458145 
	C656.711792,238.604309 656.782959,236.208099 656.900757,232.909241 
	C656.947388,224.811401 656.947388,217.616226 656.947388,210.241623 
	C653.536987,210.241623 650.771362,210.241623 648.005676,210.241623 
	C646.545593,210.091095 645.085510,209.940567 643.297791,209.756256 
	C643.297791,204.954788 643.297791,200.374390 643.297791,195.394928 
	C653.386963,195.394928 663.400330,195.394928 673.938232,195.394928 
	C673.938232,198.771378 673.938232,201.978317 673.938232,206.231323 
	C687.264526,194.260559 701.653931,190.373322 717.534790,196.971054 
	C730.389282,202.311508 738.340576,212.280396 741.085083,226.889557 
	C741.435913,228.769363 741.748047,229.900223 742.060181,231.031097 
	C742.340149,239.242065 742.006226,247.374710 738.969727,255.575470 
	C738.958191,255.986954 738.987854,255.931686 738.759888,256.031464 
	C738.231995,256.328674 738.070923,256.606537 737.891663,257.276489 
	C734.212280,262.081573 730.689880,266.575012 726.973877,271.356934 
	C714.026184,282.297455 691.962463,284.546631 673.908020,269.296326 
	C673.908020,274.864929 673.908020,279.933838 673.651733,285.250244 
	C673.634521,287.359222 673.873535,289.220642 674.070435,291.519958 
	C674.028259,294.169739 674.028259,296.381683 674.028259,298.933441 
	C676.433716,298.933441 678.190186,298.933441 680.265991,299.084930 
	C682.057983,299.135651 683.530640,299.034912 685.438782,298.957336 
	C688.614868,298.687958 690.403809,299.274506 690.049255,302.681213 
	C689.792175,305.150848 689.783875,307.692352 690.053162,310.159393 
	C690.404785,313.380615 688.905640,314.332031 685.632629,314.080902 
	C683.789124,314.067505 682.369507,314.093140 680.949829,314.118805 
M714.295410,259.891174 
	C724.323486,251.078796 727.857422,235.698868 721.729919,223.811798 
	C715.201477,211.146942 699.964783,203.848877 685.899231,213.644684 
	C676.710449,220.044174 673.618774,229.105331 673.968262,239.871994 
	C674.275024,249.320221 678.469971,256.499695 686.713806,260.779297 
	C695.601929,265.393341 704.797485,266.860474 714.295410,259.891174 
z"/>
<path fill="#1e68ad" opacity="1.000000" stroke="none" 
	d="
M108.041496,260.889160 
	C108.362938,264.290955 108.684387,267.692780 108.728729,271.789429 
	C108.296669,273.978546 108.141701,275.472809 107.986732,276.967102 
	C92.208168,276.967102 76.429604,276.967102 60.328094,276.967102 
	C60.328094,271.585449 60.328094,266.679749 60.328094,261.239136 
	C64.963669,261.239136 69.545059,261.239136 74.560837,261.239136 
	C74.560837,232.370743 74.560837,204.026886 74.560837,175.340393 
	C67.279648,175.340393 60.040771,175.340393 52.268562,175.340393 
	C52.268562,184.262848 52.268562,193.173264 52.268562,202.540131 
	C46.733189,202.540131 41.708302,202.540131 36.337448,202.540131 
	C36.337448,188.275009 36.337448,174.040543 36.337448,158.986816 
	C66.587288,158.986816 96.814247,158.986816 127.898338,159.018417 
	C129.798370,159.084854 130.841248,159.119675 131.884140,159.154495 
	C131.884140,173.511566 131.884140,187.868637 131.884140,203.019836 
	C128.394653,203.019836 125.160667,203.019836 121.231659,202.773163 
	C119.358261,202.351196 118.179886,202.175919 117.000847,201.531891 
	C117.000191,192.491699 117.000191,183.920258 117.000191,175.328903 
	C108.965508,175.328903 101.734581,175.328903 93.755310,175.328903 
	C93.755310,203.933472 93.755310,232.210907 93.755310,260.982971 
	C96.762039,260.982971 99.881859,260.982971 103.214142,261.253723 
	C104.964905,261.312683 106.503197,261.100922 108.041496,260.889160 
z"/>
<path fill="#1e68ad" opacity="1.000000" stroke="none" 
	d="
M608.588684,194.995361 
	C621.333984,200.927429 624.489624,211.451035 624.073486,224.118652 
	C623.718384,234.926041 623.989929,245.754364 624.010803,256.573364 
	C624.013977,258.196686 624.162048,259.819702 624.267761,261.937500 
	C628.809021,261.937500 633.061340,261.937500 637.648193,261.937500 
	C637.648193,267.361450 637.648193,272.266235 637.648193,277.589172 
	C628.304382,277.589172 618.948059,277.589172 609.243896,277.589172 
	C609.098450,274.914215 608.959534,272.359253 608.788635,269.216400 
	C600.552185,275.760590 591.858948,279.306366 581.592407,279.090240 
	C568.403259,278.812653 555.678711,265.434143 555.616882,253.398285 
	C555.526855,235.850555 570.626892,226.939331 583.081665,225.965973 
	C591.796875,225.284836 599.669189,227.843063 607.839478,232.408585 
	C607.992981,224.866882 608.263611,218.246887 603.926453,212.424973 
	C599.103333,205.950745 584.891541,205.775391 578.503662,211.024796 
	C576.113647,212.988907 573.695374,216.606567 571.338379,216.567215 
	C566.611450,216.488342 561.917969,214.411026 556.586487,212.992554 
	C561.404785,203.030197 568.560486,197.130264 579.224121,194.351105 
	C581.228577,193.711792 582.616211,193.369293 584.003845,193.026810 
	C592.062073,193.680817 600.120300,194.334839 608.588684,194.995361 
M599.224121,242.077179 
	C596.096619,241.084747 593.025879,239.818420 589.830017,239.155579 
	C582.662292,237.668945 573.503296,243.505325 572.079773,250.212219 
	C570.650635,256.945007 576.183594,264.961823 584.011658,265.719788 
	C593.019348,266.592010 600.544250,262.234833 607.065002,256.278259 
	C607.681824,255.714828 607.766968,254.509308 607.981079,253.574905 
	C609.534790,246.794540 604.039246,245.103912 599.224121,242.077179 
z"/>
<path fill="#1e68ad" opacity="1.000000" stroke="none" 
	d="
M226.045761,272.993652 
	C223.648392,269.860779 220.731125,266.997101 218.944901,263.547760 
	C211.748520,249.651047 218.513184,233.272263 233.320908,228.030853 
	C244.433456,224.097427 256.472809,225.233826 267.787811,231.536026 
	C267.787811,227.082565 268.515137,222.746490 267.649200,218.756180 
	C265.208862,207.510452 255.796097,205.482971 246.277405,207.593964 
	C242.508484,208.429825 238.837494,211.157516 235.910843,213.873871 
	C233.643097,215.978683 231.869995,216.440582 229.138901,215.621567 
	C225.238052,214.451752 221.254440,213.557892 216.950470,212.455017 
	C221.134109,203.640106 227.723602,197.975723 236.535767,195.046234 
	C247.109467,191.531128 257.808655,191.443085 268.520844,194.766861 
	C277.854614,197.662903 283.030914,204.548462 283.781616,213.607025 
	C284.931122,227.478516 284.670715,241.467178 284.993744,255.406464 
	C285.039215,257.369476 285.000000,259.334442 285.000000,261.824036 
	C289.358551,261.824036 293.276123,261.824036 298.059540,261.824036 
	C298.059540,265.583282 298.059540,268.836029 298.147919,272.544220 
	C297.439880,274.355927 296.683411,276.861359 295.840851,276.890686 
	C287.418182,277.183411 278.981293,277.068451 270.117126,277.068451 
	C270.117126,273.973572 270.117126,271.412811 270.117126,268.048126 
	C259.417145,276.663849 248.219742,280.830414 234.587280,277.439636 
	C231.360809,275.735931 228.703278,274.364807 226.045761,272.993652 
M257.204681,262.930573 
	C260.026154,261.227173 263.014160,259.743378 265.625793,257.763214 
	C268.692383,255.438080 269.244354,247.882507 266.523895,245.860703 
	C260.122559,241.103287 252.998627,238.017975 244.844955,239.106247 
	C239.251007,239.852875 234.985092,242.975266 233.286102,248.592743 
	C231.718933,253.774490 232.994537,258.323029 237.329468,261.830048 
	C243.395569,266.737610 249.882141,265.599457 257.204681,262.930573 
z"/>
<path fill="#DAF0FB" opacity="1.000000" stroke="none" 
	d="
M583.864136,192.697296 
	C582.616211,193.369293 581.228577,193.711792 579.461792,194.071167 
	C577.729431,190.355865 575.915588,186.718903 575.120422,182.871399 
	C573.529724,175.174957 576.977844,169.102112 582.978577,164.742294 
	C590.880371,159.001190 599.186890,153.819122 607.265625,148.317719 
	C608.883118,147.216248 610.576294,145.988556 611.696960,144.432037 
	C621.339844,131.039169 633.395081,121.821358 650.613098,120.936234 
	C654.895325,120.716095 657.589905,117.411003 657.687439,113.747566 
	C657.829956,108.397697 656.814148,102.949310 655.732300,97.657364 
	C654.961426,93.886658 652.128784,93.230247 648.798584,94.932510 
	C646.442139,96.136993 644.143677,97.458511 641.762146,98.609482 
	C633.884521,102.416634 626.075623,98.669052 625.074524,90.065361 
	C623.966797,80.545845 623.516907,70.940498 623.035217,61.359737 
	C622.424377,49.208611 616.413025,42.064205 603.552002,41.830147 
	C595.349121,41.680866 589.793884,44.517319 585.093140,51.128727 
	C579.891052,58.445190 572.260864,62.931080 563.301270,63.774723 
	C557.908386,64.282516 554.638977,67.019974 552.085693,70.964493 
	C542.610229,85.602951 528.726196,92.520317 511.857056,92.873032 
	C487.136505,93.389923 462.396515,93.075233 437.665710,92.943207 
	C429.379211,92.898972 421.098145,92.163986 412.810028,92.030693 
	C386.869781,91.613548 360.926666,91.375656 334.985962,90.983803 
	C318.371155,90.732826 301.758636,90.331421 285.145050,89.999733 
	C268.364960,89.664711 251.584900,89.327225 234.804642,89.000526 
	C217.358353,88.660858 199.910583,88.386284 182.465958,87.976959 
	C173.844803,87.774666 165.220932,87.470467 156.614319,86.948227 
	C151.508148,86.638405 148.803650,89.106827 147.665955,93.684433 
	C144.073685,108.138321 140.549866,122.609283 137.030167,137.081100 
	C135.309891,144.154221 133.657379,151.243851 131.929169,158.740250 
	C130.841248,159.119675 129.798370,159.084854 128.365051,158.999420 
	C131.104706,145.414001 134.194901,131.869781 137.378891,118.347649 
	C139.502594,109.328514 141.752609,100.339035 143.960159,91.339737 
	C145.391312,85.505470 148.291992,83.802849 154.333801,83.865150 
	C173.819901,84.066071 193.309952,83.862518 212.796661,84.028809 
	C238.239288,84.245934 263.680481,84.645065 289.121735,85.008087 
	C310.066437,85.306938 331.010284,85.668076 351.954498,86.000107 
	C373.065308,86.334793 394.176056,86.668892 415.286896,87.000916 
	C436.564240,87.335541 457.842743,87.611641 479.118500,88.026703 
	C488.072754,88.201378 497.105042,89.565315 505.948303,88.741188 
	C514.375183,87.955872 522.956055,85.899330 530.790161,82.725517 
	C535.843506,80.678268 540.135742,76.026375 543.942810,71.797829 
	C549.726624,65.373589 555.400757,59.538532 564.808105,58.902283 
	C573.671204,58.302845 577.869385,51.136986 582.425171,44.877743 
	C586.375305,39.450706 591.571899,36.855534 598.139954,37.037590 
	C602.764099,37.165760 607.413513,37.390804 611.989502,38.022289 
	C619.595886,39.071960 624.574524,43.821190 625.844177,51.095890 
	C627.258850,59.201794 627.250427,67.549042 628.035645,75.774620 
	C628.458069,80.200134 628.834534,84.699371 629.963867,88.971840 
	C631.668518,95.421158 635.129639,96.711754 641.303589,93.852158 
	C642.662476,93.222763 644.011414,92.559769 645.312988,91.820831 
	C652.400818,87.797096 658.637695,89.673973 660.412354,97.310837 
	C661.779541,103.194611 661.924561,109.475464 661.779358,115.559860 
	C661.673767,119.987358 655.320801,124.257790 650.208069,125.054848 
	C636.928589,127.125069 625.253235,132.748596 617.785950,144.125946 
	C612.590942,152.041046 604.358032,155.143158 597.391846,160.281204 
	C593.530701,163.129059 589.129211,165.443542 585.855896,168.848785 
	C578.459106,176.543747 577.200623,179.905045 583.864136,192.697296 
z"/>
<path fill="#1e68ad" opacity="1.000000" stroke="none" 
	d="
M139.882874,272.945099 
	C139.882858,269.496338 139.882858,266.047607 139.882858,262.085297 
	C145.443802,262.085297 150.363754,262.085297 155.632996,262.085297 
	C155.632996,244.675095 155.632996,227.781677 155.632996,210.182922 
	C150.709045,210.182922 145.667969,210.182922 140.323654,210.182922 
	C140.323654,204.579483 140.323654,199.673447 140.323654,194.952148 
	C150.065262,194.952148 159.733566,194.952148 169.741806,194.952148 
	C169.741806,199.985275 169.741806,204.428619 169.741806,208.871964 
	C177.803497,194.363754 191.467239,193.610626 205.721375,193.230118 
	C205.721375,199.149551 205.721375,204.724380 205.721375,210.437805 
	C200.339172,210.970230 195.041428,211.048950 189.940948,212.092148 
	C179.531937,214.221069 174.875793,219.487274 174.066528,230.111267 
	C173.277039,240.475327 173.048309,250.882111 172.548111,261.823242 
	C179.028061,261.823242 184.605835,261.823242 191.014084,261.823242 
	C191.014084,265.575928 191.014084,268.824646 190.751923,272.768677 
	C190.333984,274.664307 190.178223,275.864655 190.022461,277.065002 
	C173.660828,277.056213 157.299194,277.047424 140.476852,276.615753 
	C139.971710,275.110260 139.927292,274.027679 139.882874,272.945099 
z"/>
<path fill="#1e68ad" opacity="1.000000" stroke="none" 
	d="
M351.872864,273.422546 
	C351.804230,269.543823 351.804230,266.087677 351.804230,262.121765 
	C357.072815,262.121765 361.660553,262.121765 366.617645,262.121765 
	C366.617645,232.706024 366.617645,203.811905 366.617645,174.209198 
	C362.064758,174.209198 357.360535,174.209198 352.335449,174.209198 
	C352.335449,168.934326 352.335449,164.360245 352.335449,159.390915 
	C362.614868,159.390915 372.854523,159.390915 383.781189,159.390915 
	C383.781189,193.270981 383.781189,227.285797 383.781189,261.823242 
	C388.022858,261.823242 391.608887,261.823242 396.055511,261.823242 
	C396.055511,265.581848 396.055511,268.834686 396.139099,272.543701 
	C396.452179,276.187073 395.020111,277.209839 391.821747,277.164825 
	C379.922791,276.997223 368.019958,277.065369 356.118927,277.125214 
	C353.724701,277.137238 351.738098,276.978851 351.872864,273.422546 
z"/>
<path fill="#DAF0FB" opacity="1.000000" stroke="none" 
	d="
M742.449524,231.068604 
	C741.748047,229.900223 741.435913,228.769363 741.139954,227.284790 
	C755.006409,228.132065 765.243774,235.157715 773.184326,246.286758 
	C785.827209,264.006409 792.646301,284.012878 795.822266,305.222412 
	C797.704041,317.789185 798.550293,330.580475 798.866638,343.295563 
	C799.316040,361.355896 795.163574,359.213409 781.331482,361.003174 
	C770.377197,362.420593 758.711487,361.977417 748.656738,365.782532 
	C736.253601,370.476257 724.840759,369.889740 712.769104,366.808838 
	C703.376160,364.411652 697.061218,367.233582 692.209717,375.482025 
	C687.241028,383.929688 680.769348,390.544983 671.644592,394.990662 
	C665.664673,397.904144 661.036255,403.479340 655.256104,406.953217 
	C651.150085,409.420990 646.237976,411.174286 641.495117,411.797760 
	C635.504944,412.585236 630.900696,406.560883 632.770081,400.661163 
	C634.609680,394.855499 637.336975,389.318970 639.846008,383.741394 
	C641.886108,379.206329 644.233948,374.810699 646.342834,370.305267 
	C647.905945,366.965881 646.446716,364.033081 643.658691,362.723419 
	C642.312256,362.090942 639.338867,363.471863 637.890198,364.800415 
	C634.604065,367.814148 631.727539,371.293549 628.828491,374.705963 
	C624.673706,379.596649 619.298584,381.492523 613.078247,382.157562 
	C611.184387,382.360016 608.368347,384.074585 607.877441,385.678894 
	C603.421509,400.240387 592.209045,404.130066 578.767761,405.114105 
	C574.338684,405.438354 569.959961,406.505615 565.570618,407.301788 
	C559.745605,408.358368 555.664734,405.851440 555.044495,400.074249 
	C554.109009,391.360474 553.432800,382.603607 553.087830,373.847687 
	C552.894531,368.941528 551.112427,365.564941 547.161621,362.571014 
	C540.436279,357.474457 534.161865,351.782806 527.365662,345.758789 
	C527.094971,343.424805 527.156616,341.673157 527.218262,339.921539 
	C528.606384,341.238098 529.934631,342.625366 531.392822,343.859070 
	C538.048950,349.490509 544.519836,355.377594 551.509766,360.562805 
	C555.284546,363.362976 556.894775,366.543518 557.023682,370.985291 
	C557.278687,379.769592 557.606323,388.553131 558.034485,397.330597 
	C558.262756,402.009796 561.582092,404.363190 566.121765,403.467712 
	C573.898865,401.933655 581.664124,400.302460 589.490662,399.069733 
	C594.396912,398.296906 597.714539,395.868134 599.779663,391.481201 
	C600.346497,390.277039 601.108398,389.144562 601.527222,387.894287 
	C603.730591,381.316101 608.129700,378.485992 615.147339,377.657471 
	C618.974121,377.205688 622.765747,373.994690 625.959290,371.300415 
	C629.475830,368.333588 632.247070,364.493652 635.418762,361.104950 
	C638.681091,357.619293 642.502563,356.833618 646.644165,359.402924 
	C650.819641,361.993286 652.312988,367.012573 650.103333,371.655212 
	C646.395752,379.444550 642.329041,387.063385 638.649780,394.865417 
	C637.401306,397.512817 636.340088,400.458832 636.130859,403.336578 
	C635.820374,407.606842 638.995300,409.984344 642.954407,408.401886 
	C647.702332,406.504150 652.466248,404.332642 656.677673,401.475555 
	C664.050964,396.473358 671.210083,391.099915 678.050720,385.392731 
	C681.246704,382.726349 684.279114,379.287354 686.024292,375.560974 
	C692.685486,361.337830 701.923828,361.009186 714.923340,362.510498 
	C716.549072,362.698273 718.138611,363.293915 719.715637,363.793060 
	C727.560364,366.276062 734.805237,366.052490 742.770813,362.577789 
	C749.684509,359.561951 757.811279,359.138031 765.472412,358.078369 
	C772.994080,357.037994 780.613281,356.722260 788.172363,355.924286 
	C791.819275,355.539307 793.775635,353.231628 793.979187,349.575592 
	C795.712219,318.442383 790.788330,288.489044 776.604614,260.582581 
	C770.979858,249.516022 763.765259,239.113129 751.858643,233.521332 
	C749.085571,232.219009 745.857483,231.885437 742.449524,231.068604 
z"/>
<path fill="#1e68ad" opacity="1.000000" stroke="none" 
	d="
M304.033844,273.350037 
	C303.834076,269.549408 303.834076,266.095428 303.834076,262.125549 
	C308.403656,262.125549 312.323730,262.125549 316.616241,262.125549 
	C316.616241,244.710648 316.616241,227.812302 316.616241,210.305298 
	C313.069824,210.126160 309.358002,209.938660 305.332916,209.735336 
	C305.332916,204.933258 305.332916,200.359451 305.332916,195.390717 
	C314.612823,195.390717 323.851593,195.390717 333.780884,195.390717 
	C333.780884,217.266129 333.780884,239.286346 333.780884,261.825134 
	C338.359650,261.825134 342.275604,261.825134 347.040222,261.825134 
	C347.040222,265.582031 347.040222,268.833496 347.103088,272.544189 
	C346.357849,276.057495 344.732178,277.309113 341.236786,277.209534 
	C330.524078,276.904388 319.795410,276.992798 309.076935,277.170349 
	C306.290070,277.216492 304.720886,276.434540 304.033844,273.350037 
z"/>
<path fill="#1e68ad" opacity="1.000000" stroke="none" 
	d="
M413.999725,344.839294 
	C413.890717,346.756378 413.781830,348.194000 413.660370,349.798096 
	C410.794922,349.798096 408.333710,349.798096 404.935730,349.798096 
	C404.935730,333.745453 404.935730,317.760590 404.935730,301.628418 
	C412.407318,299.724396 413.843903,300.228455 418.235474,306.781769 
	C421.534515,311.704773 424.784485,316.660706 428.423462,322.156555 
	C432.087158,316.603088 435.603912,311.527069 438.852692,306.284973 
	C443.189178,299.287903 443.099823,299.232513 451.753082,300.544250 
	C452.256561,316.335205 452.762451,332.202118 453.283447,348.542725 
	C449.720459,348.542725 446.696320,348.542725 443.292480,348.542725 
	C443.292480,338.411804 443.292480,328.309906 443.292480,318.208038 
	C442.952698,318.050964 442.612915,317.893921 442.273102,317.736877 
	C437.823425,324.395020 433.373749,331.053162 428.528076,338.303833 
	C423.771576,331.423584 419.339294,325.012390 413.999878,317.289001 
	C413.999878,327.292389 413.999878,335.826111 413.999725,344.839294 
z"/>
<path fill="#1e68ad" opacity="1.000000" stroke="none" 
	d="
M499.303162,342.649841 
	C498.291809,337.964081 495.759155,336.213684 491.363342,336.960968 
	C489.908600,337.208313 488.353210,337.171082 486.883575,336.971436 
	C479.030304,335.904572 473.742523,337.939667 471.406036,346.616272 
	C470.066040,351.592438 464.907990,348.063843 460.773804,349.046661 
	C464.672638,339.674713 468.247986,331.039673 471.856781,322.418640 
	C474.658478,315.725739 477.360657,308.984131 480.435638,302.418030 
	C481.122772,300.950775 483.107971,299.346069 484.630127,299.199127 
	C486.645813,299.004517 490.077881,299.572418 490.689728,300.861908 
	C498.097260,316.474030 505.097198,332.279510 512.262878,348.166931 
	C503.431152,350.143951 502.594360,349.774414 499.303162,342.649841 
M483.838928,317.320038 
	C482.327271,321.051361 480.815613,324.782684 479.258820,328.625458 
	C484.212921,328.625458 488.439911,328.625458 493.491608,328.625458 
	C490.982239,323.031952 488.753479,318.064026 486.102631,312.155151 
	C485.065460,314.322449 484.525818,315.450073 483.838928,317.320038 
z"/>
<path fill="#1e68ad" opacity="1.000000" stroke="none" 
	d="
M527.170166,339.482361 
	C527.156616,341.673157 527.094971,343.424805 527.075439,345.613220 
	C525.960693,352.093262 521.484863,347.535309 517.859253,349.642944 
	C517.859253,336.451965 517.859253,324.228424 517.891479,311.135986 
	C517.602478,308.510284 517.281250,306.753448 516.960022,304.996613 
	C516.220581,300.081238 518.486389,298.540161 523.183655,298.942261 
	C529.579834,299.489807 536.033752,299.391510 542.421265,300.004395 
	C551.986938,300.922180 556.861816,309.358368 556.012634,318.491852 
	C555.291199,326.251373 547.761475,332.686737 538.707031,332.979156 
	C535.081970,333.096222 531.449951,332.998413 527.122131,332.998413 
	C527.122131,335.241089 527.122131,337.142151 527.170166,339.482361 
M545.997009,316.322998 
	C546.894348,308.477356 538.966370,306.618927 527.400879,308.646301 
	C527.400879,313.634674 527.400879,318.639832 527.400879,323.999939 
	C530.759460,323.999939 533.723999,323.903503 536.679993,324.021545 
	C541.674866,324.221008 544.924133,322.197021 545.997009,316.322998 
z"/>
<path fill="#D9F0FB" opacity="1.000000" stroke="none" 
	d="
M516.573853,304.952179 
	C517.281250,306.753448 517.602478,308.510284 517.853271,310.674316 
	C515.185425,310.044281 512.380005,309.336639 510.054382,307.868805 
	C508.087494,306.627319 505.509369,304.672516 505.233063,302.742645 
	C504.324738,296.398193 504.084991,289.921082 504.094513,283.495697 
	C504.100433,279.497803 502.984772,277.443390 498.304993,277.940735 
	C498.172974,276.475830 498.476593,275.051544 498.941193,273.293976 
	C508.840088,272.940216 507.566895,274.622467 508.888519,282.918213 
	C509.507202,286.801544 508.997925,290.864655 508.998627,294.846283 
	C509.000061,302.777191 508.999725,302.777191 516.573853,304.952179 
z"/>
<path fill="#D9F0FB" opacity="1.000000" stroke="none" 
	d="
M190.318939,277.352753 
	C190.178223,275.864655 190.333984,274.664307 190.767822,273.230286 
	C202.397171,272.997253 213.748444,272.997955 225.572723,272.996155 
	C228.703278,274.364807 231.360809,275.735931 234.163834,277.409698 
	C219.744690,277.688416 205.180054,277.664459 190.318939,277.352753 
z"/>
<path fill="#1e68ad" opacity="1.000000" stroke="none" 
	d="
M365.016266,309.815674 
	C365.515198,311.818146 366.025848,313.486359 366.661102,315.561676 
	C364.676208,315.561676 362.687347,315.561676 360.557251,315.561676 
	C360.557251,312.278656 360.557251,308.970062 360.557251,305.129791 
	C362.903229,305.247314 365.399536,305.393188 367.897827,305.487946 
	C368.999603,305.529724 370.184479,305.722351 371.195312,305.408051 
	C375.185699,304.167267 379.004578,305.456207 379.308624,309.155243 
	C379.484467,311.294312 377.645050,314.950897 375.865173,315.599670 
	C372.766693,316.729065 369.281342,315.873871 368.821228,311.118652 
	C368.757172,310.456757 366.350311,310.021576 365.016266,309.815674 
z"/>
<path fill="#D9F0FB" opacity="1.000000" stroke="none" 
	d="
M139.424911,272.965057 
	C139.927292,274.027679 139.971710,275.110260 140.008484,276.598816 
	C138.283539,277.336090 136.565186,277.956604 134.849167,277.950134 
	C126.086105,277.917114 117.323654,277.722198 108.273865,277.275513 
	C108.141701,275.472809 108.296669,273.978546 108.735382,272.242798 
	C113.237732,272.334656 117.451492,272.839935 121.676147,272.959320 
	C127.435394,273.122009 133.202957,272.990417 139.424911,272.965057 
z"/>
<path fill="#1e68ad" opacity="1.000000" stroke="none" 
	d="
M380.436279,313.273560 
	C380.588654,310.478577 380.588654,308.069397 380.588654,305.012207 
	C384.451904,305.012207 388.493347,304.908142 392.527496,305.035706 
	C399.212341,305.247070 393.298767,312.485138 398.171692,313.770813 
	C397.922119,314.337891 397.672546,314.904968 397.423004,315.472046 
	C391.709961,314.867828 385.996918,314.263580 380.436279,313.273560 
z"/>
<path fill="#FFFFFF" opacity="1.000000" stroke="none" 
	d="
M648.053833,210.573975 
	C650.771362,210.241623 653.536987,210.241623 656.947388,210.241623 
	C656.947388,217.616226 656.947388,224.811401 656.865356,232.460480 
	C655.074341,227.709152 653.493591,222.456619 651.597351,217.320541 
	C650.762878,215.060394 649.286743,213.037140 648.053833,210.573975 
z"/>
<path fill="#DAF0FB" opacity="1.000000" stroke="none" 
	d="
M467.894104,272.951874 
	C467.961670,274.315430 468.029236,275.678955 468.147461,277.445221 
	C462.378662,277.879181 456.559235,277.910431 450.250916,277.877930 
	C449.833466,276.467102 449.904846,275.120117 450.487000,273.381348 
	C456.629852,272.977051 462.261993,272.964478 467.894104,272.951874 
z"/>
<path fill="#1e68ad" opacity="1.000000" stroke="none" 
	d="
M599.601318,312.054565 
	C594.140381,306.918457 587.164062,305.485046 581.578308,308.188568 
	C576.055481,310.861572 571.528625,318.295715 572.018738,323.887756 
	C572.688782,331.532867 577.487732,338.456879 584.317688,339.395050 
	C588.235962,339.933228 593.406616,339.165405 596.405579,336.877686 
	C601.822876,332.745148 604.512146,335.001251 607.414429,339.274658 
	C601.405457,348.056122 590.814514,351.062469 578.908997,347.466797 
	C568.425537,344.300568 562.061096,334.085938 562.181030,323.629517 
	C562.311462,312.256012 567.128174,302.881592 579.859009,298.968201 
	C588.845886,296.205750 602.610229,298.302063 607.177124,306.735870 
	C604.821167,308.519409 602.343018,310.395477 599.601318,312.054565 
z"/>
<path fill="#DAF0FB" opacity="1.000000" stroke="none" 
	d="
M681.006409,314.462830 
	C682.369507,314.093140 683.789124,314.067505 685.652588,314.427429 
	C689.725403,323.329987 696.949829,327.575958 705.233765,329.949036 
	C722.027893,334.760010 738.022400,330.243439 753.688660,324.571930 
	C763.378052,321.064209 768.339355,314.042175 767.026855,303.320892 
	C766.846375,301.846313 766.666382,300.210999 767.103333,298.847870 
	C769.731262,290.647919 767.239868,284.281799 760.639099,279.101501 
	C755.425415,275.009766 752.215210,270.045685 752.751404,262.868225 
	C752.909424,260.752289 750.478699,258.442993 749.234314,256.222351 
	C747.397400,257.652252 745.217102,258.803314 743.787476,260.563934 
	C739.391968,265.977142 735.659363,272.212677 727.167419,271.068481 
	C730.689880,266.575012 734.212280,262.081573 738.115479,257.176178 
	C738.764526,256.548462 738.928467,256.270935 738.987854,255.931686 
	C738.987854,255.931686 738.958191,255.986954 738.931763,255.968491 
	C739.674683,255.703278 740.567078,255.629623 741.194641,255.183533 
	C749.137207,249.538666 756.186951,252.232834 756.793579,261.846710 
	C757.263611,269.296051 760.621216,274.223206 766.389038,278.239868 
	C770.383423,281.021515 771.898376,285.373169 771.900818,289.917297 
	C771.904724,297.358429 771.913086,304.895905 770.766235,312.211945 
	C769.782410,318.488739 765.518982,323.178680 759.708435,326.116913 
	C749.396240,331.331512 738.525696,334.144257 726.944580,335.179657 
	C718.073059,335.972778 709.332520,336.374969 701.105286,333.014587 
	C692.391113,329.455322 685.027588,323.860962 681.006409,314.462830 
z"/>
<path fill="#1e68ad" opacity="1.000000" stroke="none" 
	d="
M316.227966,162.546814 
	C320.370575,158.045715 325.533752,156.690369 330.109314,158.602356 
	C334.584137,160.472244 336.586914,166.438004 334.557190,171.851486 
	C332.687775,176.837418 326.986511,179.345688 321.908691,177.416183 
	C315.644714,175.035965 313.553894,169.861038 316.227966,162.546814 
z"/>
<path fill="#DAF0FB" opacity="1.000000" stroke="none" 
	d="
M117.001495,202.000626 
	C118.179886,202.175919 119.358261,202.351196 120.770432,202.797073 
	C118.197678,215.306580 115.382103,227.543442 112.588188,239.785248 
	C111.044914,246.547241 109.537971,253.317520 108.028076,260.486633 
	C106.503197,261.100922 104.964905,261.312683 103.221146,260.853210 
	C107.677620,240.788177 112.339554,221.394394 117.001495,202.000626 
z"/>
<path fill="#FFFFFF" opacity="1.000000" stroke="none" 
	d="
M467.934082,272.488831 
	C462.261993,272.964478 456.629852,272.977051 450.537567,272.976135 
	C450.077393,269.507965 450.077393,266.053253 450.077393,262.089905 
	C445.227295,262.089905 440.972870,262.089905 436.000671,262.089905 
	C436.000671,259.645325 436.000671,257.716675 436.000671,255.788025 
	C436.000671,245.297516 436.218018,234.800171 435.887573,224.320084 
	C435.765167,220.437088 437.011688,218.024414 440.285736,216.377747 
	C444.258484,214.379654 448.089294,211.989639 452.239166,210.475266 
	C462.441864,206.752151 467.966248,210.748856 467.988007,221.571686 
	C468.021790,238.389633 467.982422,255.207733 467.934082,272.488831 
z"/>
<path fill="#FFFFFF" opacity="1.000000" stroke="none" 
	d="
M726.973877,271.356934 
	C735.659363,272.212677 739.391968,265.977142 743.787476,260.563934 
	C745.217102,258.803314 747.397400,257.652252 749.234314,256.222351 
	C750.478699,258.442993 752.909424,260.752289 752.751404,262.868225 
	C752.215210,270.045685 755.425415,275.009766 760.639099,279.101501 
	C767.239868,284.281799 769.731262,290.647919 767.103333,298.847870 
	C766.666382,300.210999 766.846375,301.846313 767.026855,303.320892 
	C768.339355,314.042175 763.378052,321.064209 753.688660,324.571930 
	C738.022400,330.243439 722.027893,334.760010 705.233765,329.949036 
	C696.949829,327.575958 689.725403,323.329987 686.076416,314.466431 
	C688.905640,314.332031 690.404785,313.380615 690.053162,310.159393 
	C689.783875,307.692352 689.792175,305.150848 690.049255,302.681213 
	C690.403809,299.274506 688.614868,298.687958 685.430847,298.579712 
	C683.991089,291.519196 680.236328,287.178925 673.908020,285.002747 
	C673.908020,279.933838 673.908020,274.864929 673.908020,269.296326 
	C691.962463,284.546631 714.026184,282.297455 726.973877,271.356934 
z"/>
<path fill="#FFFFFF" opacity="1.000000" stroke="none" 
	d="
M713.949585,260.021118 
	C704.797485,266.860474 695.601929,265.393341 686.713806,260.779297 
	C678.469971,256.499695 674.275024,249.320221 673.968262,239.871994 
	C673.618774,229.105331 676.710449,220.044174 685.899231,213.644684 
	C699.964783,203.848877 715.201477,211.146942 721.729919,223.811798 
	C727.857422,235.698868 724.323486,251.078796 713.949585,260.021118 
z"/>
<path fill="#D9F0FB" opacity="1.000000" stroke="none" 
	d="
M673.651733,285.250244 
	C680.236328,287.178925 683.991089,291.519196 684.995422,298.556519 
	C683.530640,299.034912 682.057983,299.135651 680.140015,298.775879 
	C677.834045,295.904236 675.973267,293.493164 674.112549,291.082092 
	C673.873535,289.220642 673.634521,287.359222 673.651733,285.250244 
z"/>
<path fill="#FFFFFF" opacity="1.000000" stroke="none" 
	d="
M674.070435,291.519958 
	C675.973267,293.493164 677.834045,295.904236 679.820679,298.624390 
	C678.190186,298.933441 676.433716,298.933441 674.028259,298.933441 
	C674.028259,296.381683 674.028259,294.169739 674.070435,291.519958 
z"/>
<path fill="#FFFFFF" opacity="1.000000" stroke="none" 
	d="
M738.759888,256.031464 
	C738.928467,256.270935 738.764526,256.548462 738.272339,256.864502 
	C738.070923,256.606537 738.231995,256.328674 738.759888,256.031464 
z"/>
<path fill="#FFFFFF" opacity="1.000000" stroke="none" 
	d="
M117.000839,201.531891 
	C112.339554,221.394394 107.677620,240.788177 103.008675,260.582458 
	C99.881859,260.982971 96.762039,260.982971 93.755310,260.982971 
	C93.755310,232.210907 93.755310,203.933472 93.755310,175.328903 
	C101.734581,175.328903 108.965508,175.328903 117.000191,175.328903 
	C117.000191,183.920258 117.000191,192.491699 117.000839,201.531891 
z"/>
<path fill="#FFFFFF" opacity="1.000000" stroke="none" 
	d="
M599.563110,242.256577 
	C604.039246,245.103912 609.534790,246.794540 607.981079,253.574905 
	C607.766968,254.509308 607.681824,255.714828 607.065002,256.278259 
	C600.544250,262.234833 593.019348,266.592010 584.011658,265.719788 
	C576.183594,264.961823 570.650635,256.945007 572.079773,250.212219 
	C573.503296,243.505325 582.662292,237.668945 589.830017,239.155579 
	C593.025879,239.818420 596.096619,241.084747 599.563110,242.256577 
z"/>
<path fill="#FFFFFF" opacity="1.000000" stroke="none" 
	d="
M256.834229,263.061584 
	C249.882141,265.599457 243.395569,266.737610 237.329468,261.830048 
	C232.994537,258.323029 231.718933,253.774490 233.286102,248.592743 
	C234.985092,242.975266 239.251007,239.852875 244.844955,239.106247 
	C252.998627,238.017975 260.122559,241.103287 266.523895,245.860703 
	C269.244354,247.882507 268.692383,255.438080 265.625793,257.763214 
	C263.014160,259.743378 260.026154,261.227173 256.834229,263.061584 
z"/>
<path fill="#FFFFFF" opacity="1.000000" stroke="none" 
	d="
M483.912567,316.948853 
	C484.525818,315.450073 485.065460,314.322449 486.102631,312.155151 
	C488.753479,318.064026 490.982239,323.031952 493.491608,328.625458 
	C488.439911,328.625458 484.212921,328.625458 479.258820,328.625458 
	C480.815613,324.782684 482.327271,321.051361 483.912567,316.948853 
z"/>
<path fill="#FFFFFF" opacity="1.000000" stroke="none" 
	d="
M545.988770,316.731567 
	C544.924133,322.197021 541.674866,324.221008 536.679993,324.021545 
	C533.723999,323.903503 530.759460,323.999939 527.400879,323.999939 
	C527.400879,318.639832 527.400879,313.634674 527.400879,308.646301 
	C538.966370,306.618927 546.894348,308.477356 545.988770,316.731567 
z"/>
</svg>