<svg enable-background="new 0 0 828 455" viewBox="0 0 828 455" xmlns="http://www.w3.org/2000/svg"><path d="m628 456c-209.333344 0-418.166672 0-627 0 0-151.666656 0-303.333328 0-455h828v455c-66.833313 0-133.666687 0-201 0m-110.140747-143.995148v37.638092c3.62561-2.107635 8.10144 2.450318 9.838745-3.301757 6.463867 5.441619 12.738281 11.13327 19.463623 16.229827 3.950806 2.993927 5.73291 6.370514 5.926209 11.276673.34497 8.75592 1.021179 17.512787 1.956665 26.226562.620239 5.777191 4.70111 8.284119 10.526123 7.227539 4.389343-.796173 8.768066-1.863434 13.197143-2.187683 13.441284-.984039 24.653748-4.873718 29.10968-19.435211.490906-1.604309 3.306946-3.318878 5.200806-3.521332 6.220337-.665039 11.595459-2.560913 15.750244-7.451599 2.899048-3.412414 5.775574-6.891815 9.061707-9.905548 1.448669-1.328552 4.422058-2.709473 5.768493-2.076996 2.788025 1.309662 4.247254 4.242462 2.684143 7.581848-2.108886 4.505432-4.456726 8.901062-6.496826 13.436127-2.509033 5.577576-5.236328 11.114105-7.075927 16.919769-1.869385 5.89972 2.734863 11.924073 8.725036 11.136597 4.742859-.623474 9.654968-2.37677 13.760987-4.844543 5.780151-3.473877 10.408569-9.049073 16.388488-11.962555 9.124756-4.445679 15.596436-11.060974 20.565125-19.508637 4.851501-8.248443 11.166443-11.070373 20.559387-8.673187 12.071655 3.080902 23.484497 3.667419 35.887634-1.026306 10.054749-3.805115 21.720459-3.361939 32.674744-4.779358 13.832092-1.789765 17.984558.352722 17.535156-17.707611-.316345-12.715088-1.162597-25.506378-3.044372-38.073151-3.175965-21.209534-9.995057-41.216003-22.63794-58.935654-7.940552-11.129043-18.177917-18.154693-32.137939-20.146133-2.705811-13.860229-10.657105-23.829117-23.511597-29.169571-15.880859-6.597732-30.270264-2.710495-43.596558 9.260269 0-4.253006 0-7.459945 0-10.836395-10.537902 0-20.551269 0-30.640441 0v14.361328c1.787719.184311 3.247802.334839 4.804138 1.150086 1.184814 2.130798 2.660949 4.154052 3.495422 6.414199 1.89624 5.136078 3.47699 10.388611 5.256775 16.491349-.071167 2.396209-.142334 4.792419-.85376 7.019455-1.327392-2.416932-3.135742-4.693085-3.892212-7.277146-2.28363-7.801468-4.441833-15.580246-9.977356-21.892364-3.157104-3.600022-6.68872-7.004349-9.169067-11.039307-6.430664-10.461075-13.962891-12.420669-24.783203-5.633667-8.058228-.654022-16.116455-1.308044-24.454102-2.621094-6.523803-12.462722-5.26532-15.82402 2.13147-23.518982 3.273315-3.405243 7.674805-5.719726 11.53595-8.567581 6.966186-5.138046 15.199096-8.240158 20.394104-16.155258 7.467285-11.37735 19.142639-17.000877 32.422119-19.071098 5.112732-.797058 11.465698-5.06749 11.571289-9.494988.145203-6.084396.000183-12.365249-1.367004-18.249023-1.774659-7.636864-8.011536-9.513741-15.099366-5.490006-1.301574.738938-2.650512 1.401932-4.009399 2.031327-6.17395 2.859596-9.635071 1.569-11.339722-4.880318-1.129333-4.272469-1.505798-8.771706-1.928222-13.19722-.785218-8.225578-.776795-16.572826-2.191468-24.67873-1.269653-7.2747-6.248291-12.02393-13.854675-13.073601-4.575989-.631485-9.225403-.856529-13.849548-.984699-6.568055-.182056-11.764649 2.413116-15.714783 7.840153-4.555786 6.259243-8.753967 13.425102-17.617066 14.02454-9.407348.636249-15.081481 6.471306-20.865295 12.895546-3.807068 4.228546-8.099304 8.880439-13.152649 10.927688-7.834106 3.173813-16.414978 5.230355-24.841858 6.015671-8.843261.824127-17.875549-.53981-26.829803-.714485-21.275757-.415062-42.55426-.691162-63.831604-1.025787-21.11084-.332024-42.221588-.666123-63.332398-1.000809-20.944214-.332031-41.888061-.693169-62.832763-.99202-25.441254-.363022-50.882447-.762153-76.325074-.979278-19.486709-.166291-38.97676.037262-58.46286-.163659-6.041809-.062301-8.942489 1.64032-10.373642 7.474587-2.20755 8.999298-4.457565 17.988777-6.581268 27.007912-3.18399 13.522132-6.274185 27.066352-10.337692 40.639167-30.226952 0-60.453911 0-90.703751 0v43.553315h15.931114c0-9.366867 0-18.277283 0-27.199738h22.292275v85.898743c-5.015778 0-9.597168 0-14.232743 0v15.727966c16.10151 0 31.880074 0 48.232895.616821 8.762665.138275 17.525116.333191 26.288178.366211 1.716019.00647 3.434372-.614044 6.088394-.911468 16.361633.008758 32.723267.017547 49.677856.601837 14.564637.023956 29.129273.047913 44.540787.131683 13.063538 3.058228 24.260941-1.108337 34.960922-9.72406v9.020325c8.864167 0 17.301056.11496 25.723725-.177765.84256-.029327 1.599029-2.534759 3.194549-3.890686 1.599549.001129 3.199128.002258 5.198212.696716.487274 2.737824 2.056458 3.519776 4.843323 3.473633 10.718475-.177551 21.447143-.265961 32.159851.039185 3.495392.099579 5.121063-1.152039 6.70224-4.208435 1.288391-.000367 2.576813-.000763 4.002441.844055-.203369 3.133697 1.783234 3.292084 4.17746 3.28006 11.901031-.059845 23.803864-.127991 35.70282.039611 3.198364.045014 4.630432-.977752 5.239502-4.164794 2.238525-.000031 4.47702-.000092 6.83374.855743 1.059631 1.079254 2.090729 3.066009 3.183258 3.100342 14.222839.447326 28.454437.617828 43.66153.985595 5.819458-.03128 11.638885-.06253 18.36972-.060424 9.586639.006256 19.173248.012542 29.631134.100036 4.244141-.537933 5.359802 1.51648 5.353882 5.514374-.009522 6.425385.230225 12.902496 1.13855 19.246948.276306 1.929871 2.854431 3.884674 4.821319 5.12616 2.325623 1.467834 5.131043 2.175476 7.804871 4.136047m-103.859375 32.354981c0-8.533722 0-17.067444 0-27.070832 5.339416 7.723389 9.771698 14.134583 14.528198 21.014832 4.845673-7.250671 9.295349-13.908813 13.745026-20.566956.339813.157044.679596.314087 1.019378.471161v30.334687h9.990967c-.520996-16.340607-1.026886-32.20752-1.530365-47.998475-8.653259-1.311737-8.563904-1.256347-12.90039 5.740723-3.24878 5.242096-6.765534 10.318115-10.42923 15.871582-3.638977-5.495849-6.888947-10.451782-10.187988-15.374786-4.391571-6.553314-5.828156-7.057373-13.299744-5.153351v48.169678h8.72464c.12146-1.604096.230347-3.041718.339508-5.438263m85.497681-1.364044c3.096801 6.778625 3.933593 7.148162 12.765319 5.171142-7.16568-15.887421-14.165618-31.692901-21.57315-47.305023-.611847-1.28949-4.043915-1.857391-6.059601-1.662781-1.522156.146942-3.507355 1.751648-4.194489 3.218903-3.074981 6.566101-5.77716 13.307709-8.578857 20.00061-3.608795 8.621033-7.184143 17.256073-11.082977 26.628021 4.134186-.982818 9.292236 2.545777 10.632232-2.430389 2.336487-8.676605 7.624268-10.7117 15.477539-9.644836 1.469635.199646 3.025025.236877 4.479767-.010468 4.395813-.747284 6.928467 1.003113 8.134217 6.034821m-134.469574-33.514344c1.322326.540131 3.729187.975312 3.793243 1.637207.460114 4.755219 3.945465 5.610413 7.043945 4.481018 1.779877-.648773 3.619294-4.305358 3.443451-6.444427-.304046-3.699036-4.122925-4.987976-8.113312-3.747192-1.010833.3143-2.195709.121673-3.297485.079895-2.498291-.094758-4.994598-.240632-7.340576-.358155v10.431885h6.103851c-.635254-2.075317-1.145904-3.74353-1.633117-6.080231m15.25589 4.177887c5.713043.604248 11.426086 1.208496 17.139129 1.812714.249542-.567078.499115-1.134155.748688-1.701233-4.872925-1.285675 1.040649-8.523743-5.644196-8.735107-4.034149-.127564-8.075592-.023499-11.938842-.023499 0 3.05719 0 5.46637-.304779 8.647125z" fill="#fff" opacity="0"/><path d="m351.80423 272.999969c-1.288391.000367-2.576813.000763-4.314606-.456939-.449402-3.709534-.449402-6.960999-.449402-10.717896-4.764618 0-8.680572 0-13.259338 0 0-22.538788 0-44.559005 0-66.434417-9.929291 0-19.168061 0-28.447968 0v14.344619c4.025086.203324 7.736908.390824 11.283325.569962v51.820251c-4.292511 0-8.212585 0-12.782165 0v10.877838c-1.599548-.001129-3.199127-.002258-5.286591-.459014-.487945-3.708344-.487945-6.961091-.487945-10.720337-4.783417 0-8.700989 0-13.05954 0 0-2.489594.039215-4.45456-.006256-6.417572-.323029-13.939286-.062622-27.927948-1.212128-41.799439-.750702-9.058563-5.927002-15.944122-15.260772-18.840164-10.712189-3.323776-21.411377-3.235733-31.985077.279373-8.812165 2.929489-15.401658 8.593872-19.585297 17.408783 4.30397 1.102875 8.287582 1.996735 12.188431 3.16655 2.731094.819015 4.504196.357116 6.771942-1.747696 2.926651-2.716355 6.597641-5.444046 10.366562-6.279907 9.518692-2.110993 18.931457-.083512 21.371795 11.162216.865937 3.99031.138611 8.326385.138611 12.779846-11.315002-6.3022-23.354355-7.438599-34.466903-3.505173-14.807724 5.24141-21.572388 21.620194-14.376007 35.516907 1.786224 3.449341 4.703491 6.313019 6.627822 9.448395-11.824279.0018-23.175552.001098-34.542724-.461182-.015915-3.710327-.015915-6.959045-.015915-10.711731-6.408249 0-11.986023 0-18.465973 0 .500198-10.941131.728928-21.347915 1.518417-31.711975.809265-10.623993 5.465409-15.890198 15.87442-18.019119 5.10048-1.043198 10.398224-1.121918 15.780427-1.654343 0-5.713425 0-11.288254 0-17.207687-14.254136.380508-27.917878 1.133636-35.979569 15.641846 0-4.443345 0-8.886689 0-13.919816-10.00824 0-19.676544 0-29.418152 0v15.230774h15.309342v51.902375c-5.269242 0-10.189194 0-15.750138 0 0 3.96231 0 7.411041-.457962 10.87976-6.221939.02536-11.989502.156952-17.748749-.005737-4.224655-.119385-8.438415-.624664-12.663673-1.411346-.328087-3.855194-.649536-7.257019-.984398-11.061341 1.509895-7.169113 3.016838-13.939392 4.560112-20.701385 2.793915-12.241806 5.60949-24.478668 8.877251-36.741501 3.695228-.023911 6.929214-.023911 10.418701-.023911 0-15.151199 0-29.50827.045029-44.279586 1.72821-7.496399 3.380722-14.586029 5.100998-21.65915 3.519699-14.471817 7.043518-28.942779 10.635788-43.396667 1.137695-4.577606 3.842193-7.046028 8.948364-6.736206 8.606613.52224 17.230484.826439 25.851639 1.028732 17.444625.409325 34.892395.683899 52.338684 1.023567 16.780258.326699 33.560318.664185 50.340408.999207 16.613586.331688 33.226105.733093 49.840912.98407 25.940704.391853 51.883819.629745 77.824066 1.04689 8.288117.133293 16.569183.868279 24.855682.912514 24.730805.132026 49.470795.446716 74.191346-.070175 16.86914-.352715 30.753173-7.270081 40.228637-21.908539 2.553284-3.944519 5.822693-6.681977 11.215577-7.18977 8.959594-.843643 16.589782-5.329533 21.79187-12.645996 4.700744-6.611408 10.255981-9.447861 18.458862-9.29858 12.861023.234058 18.872375 7.378464 19.483215 19.52959.48169 9.580761.93158 19.186108 2.039307 28.705624 1.001099 8.603691 8.809997 12.351273 16.687622 8.544121 2.381531-1.150971 4.679993-2.472489 7.036438-3.676972 3.3302-1.702263 6.162842-1.045852 6.933716 2.724854 1.081848 5.291946 2.097656 10.740333 1.955139 16.090202-.097534 3.663437-2.792114 6.968529-7.074341 7.188668-17.218017.885124-29.273254 10.102935-38.916138 23.495803-1.120666 1.556519-2.813842 2.784211-4.431335 3.885682-8.078735 5.501403-16.385254 10.683471-24.287048 16.424575-6.000733 4.359818-9.448853 10.432663-7.858155 18.129105.795166 3.847504 2.609009 7.484466 3.724549 11.496582-10.284485 2.762283-17.440186 8.662216-22.258484 18.624573 5.331482 1.418472 10.024963 3.495788 14.751892 3.574661 2.356995.039352 4.775268-3.578308 7.165283-5.542419 6.387879-5.249405 20.599671-5.074051 25.422791 1.400177 4.337158 5.821914 4.066528 12.441909 3.913025 19.983612-8.170289-4.565522-16.042603-7.123749-24.757813-6.442612-12.454773.973358-27.55481 9.884582-27.464783 27.432312.061829 12.035858 12.786377 25.414368 25.975525 25.691955 10.266541.216126 18.959778-3.32965 27.196228-9.87384.170899 3.142853.309815 5.697815.455261 8.372772h28.404297c0-5.322937 0-10.227722 0-15.651672-4.586853 0-8.839172 0-13.380432 0-.105713-2.117798-.253784-3.740814-.256958-5.364136-.020874-10.819-.292419-21.647323.062683-32.454712.416138-12.667617-2.739502-23.191223-15.074646-29.116775 10-6.800018 17.532227-4.840424 23.962891 5.620651 2.480347 4.034958 6.011963 7.439285 9.169067 11.039307 5.535523 6.312118 7.693726 14.090896 9.977356 21.892364.75647 2.584061 2.56482 4.860214 4.330139 7.819367.437928 19.456573.437928 38.370941.437928 57.807098-5.2724 0-9.859009 0-14.572327 0v14.938141c13.079834 0 25.862854 0 38.702515.344025 4.021179 9.398132 11.384704 14.992492 20.098877 18.551757 8.227234 3.360382 16.967773 2.958191 25.839294 2.16507 11.581116-1.0354 22.45166-3.848145 32.763855-9.062744 5.810547-2.938233 10.073975-7.628174 11.0578-13.904968 1.146851-7.31604 1.138489-14.853516 1.134583-22.294648-.002442-4.544128-1.517395-8.895782-5.51178-11.677429-5.767822-4.016662-9.125427-8.943817-9.595459-16.393158-.606628-9.613876-7.656372-12.308044-15.598938-6.663177-.627563.44609-1.519958.519745-2.251343.373474 3.062928-8.182297 3.396851-16.314942 3.506165-24.488403 3.40802.816833 6.636108 1.150405 9.40918 2.452728 11.906616 5.591797 19.121215 15.99469 24.745971 27.061249 14.183716 27.906463 19.107605 57.859802 17.374573 88.993011-.203552 3.656036-2.159912 5.963715-5.806824 6.348694-7.559082.797974-15.178283 1.113708-22.699951 2.154083-7.661133 1.059662-15.787903 1.483582-22.701599 4.49942-7.965576 3.474701-15.210449 3.698273-23.055176 1.215271-1.577026-.499145-3.166565-1.094787-4.792297-1.282562-12.999512-1.501312-22.237854-1.172668-28.899048 13.050476-1.745178 3.72638-4.777588 7.165375-7.973572 9.831757-6.840637 5.707184-13.999756 11.080627-21.373047 16.082824-4.211425 2.857087-8.975341 5.028595-13.723266 6.926331-3.959107 1.582458-7.134033-.795044-6.823548-5.065308.209229-2.877746 1.270447-5.823761 2.518921-8.471161 3.679261-7.802032 7.745972-15.420867 11.453553-23.210205 2.209655-4.642639.716308-9.661926-3.459168-12.252288-4.141602-2.569306-7.963074-1.783631-11.225403 1.702026-3.171692 3.388702-5.942932 7.228638-9.459472 10.195465-3.193543 2.694275-6.985169 5.905273-10.811951 6.357056-7.017639.828521-11.416748 3.65863-13.620117 10.236816-.418824 1.250275-1.180725 2.382752-1.747559 3.586914-2.065124 4.386933-5.382751 6.815705-10.289001 7.588532-7.826538 1.232727-15.591797 2.863922-23.368897 4.397979-4.539673.895478-7.859009-1.457916-8.08728-6.137115-.428162-8.777466-.755798-17.561005-1.010803-26.345306-.128907-4.441773-1.739136-7.622315-5.513916-10.422486-6.98993-5.185211-13.460816-11.072296-20.116944-16.703735-1.458191-1.233704-2.786438-2.620972-4.222656-4.376709-.048035-2.34021-.048035-4.241272-.048035-6.483948 4.32782 0 7.959839.097809 11.5849-.019257 9.054444-.292419 16.584168-6.727783 17.305603-14.487304.849182-9.133484-4.025696-17.569672-13.591369-18.487457-6.387513-.612885-12.841431-.514588-19.23761-1.062134-4.697266-.4021-6.963074 1.138977-6.609802 6.009918-7.574128-2.174988-7.573792-2.174988-7.575226-10.105896-.000702-3.981628.508575-8.044739-.110108-11.92807-1.321624-8.295746-.048431-9.977997-9.822418-10.415833-.036072-3.706878-.036072-6.955505-.036072-10.715576-5.127319 0-9.377319 0-14.02948 0 0-11.66365.580475-22.840576-.206787-33.920303-.513672-7.229187 2.57724-11.125473 8.341004-13.864075 3.723785-1.769333 7.529846-3.470276 11.460907-4.672577 5.138153-1.571441 11.361114 1.786438 12.173248 6.638321.788147 4.708634 1.198486 9.542938 1.15271 14.316071-.103394 10.782699-.636658 21.560577-.90094 32.342743-.121216 4.944275-.020691 9.894043-.020691 14.940643h31.620361c0-5.351227 0-10.260712 0-15.691223-4.954162 0-9.542968 0-14.620239 0 0-2.31015 0-4.10614 0-5.9021 0-13.99733.015747-27.994705-.021423-41.991928-.004334-1.64061-.056946-3.349228-.498596-4.909897-3.750855-13.254257-14.638855-17.336029-27.019928-14.46997-8.239624 1.907318-15.872376 6.43634-23.712006 9.764465-14.361847-18.832398-30.489807-9.534042-46.561585-1.262604-.166961-2.645965-.329772-5.226059-.488555-7.742645-10.448548 0-20.355866 0-30.389496 0v14.797821h13.312072v51.957642c-4.954925 0-9.544891 0-14.843811 0v10.88269c-2.238525.000061-4.47702.000122-7.218414-.456116-.502869-3.709076-.502869-6.961914-.502869-10.72052-4.446624 0-8.032653 0-12.274322 0 0-34.537445 0-68.552261 0-102.432327-10.926666 0-21.166321 0-31.44574 0v14.818283h14.282196v87.912567c-4.957092 0-9.54483 0-14.813415 0zm248.060577 39.271576c2.478211-1.876068 4.95636-3.752136 7.312317-5.535675-4.566895-8.433807-18.331238-10.53012-27.318115-7.767669-12.730835 3.913391-17.547547 13.287811-17.677979 24.661316-.119934 10.456421 6.244507 20.671051 16.727967 23.83728 11.905517 3.595672 22.49646.589325 28.505432-8.192139-2.902283-4.273407-5.591553-6.52951-11.00885-2.396972-2.998963 2.287719-8.169617 3.055542-12.087891 2.517364-6.829956-.938171-11.628906-7.862183-12.29895-15.507294-.490113-5.592041 4.036743-13.026184 9.55957-15.699188 5.585754-2.703522 12.562073-1.270111 18.286499 4.082977m-283.822662-149.375351c-2.488251 6.964844-.397431 12.139771 5.866546 14.519989 5.07782 1.929505 10.779084-.578765 12.648499-5.564697 2.029724-5.413482.026947-11.379242-4.447876-13.24913-4.575562-1.911987-9.738739-.556641-14.067169 4.293838z" fill="#fff"/><path d="m403.835876 273.427826c-.059082-3.88205-.059082-7.336121-.059082-11.310638h14.843811c0-17.430253 0-34.338044 0-51.957642-4.272644 0-8.644409 0-13.312072 0 0-5.280624 0-9.85669 0-14.797821h30.389496c.158783 2.516586.321594 5.09668.488555 7.742645 16.071778-8.271438 32.199738-17.569794 46.561585 1.262604 7.83963-3.328125 15.472382-7.857147 23.712006-9.764465 12.381073-2.866059 23.269073 1.215713 27.019928 14.46997.44165 1.560669.494262 3.269287.498596 4.909897.03717 13.997223.021423 27.994598.021423 41.991928v5.9021h14.620239v15.691223c-10.274719 0-20.63507 0-31.620361 0 0-5.0466-.100525-9.996368.020691-14.940643.264282-10.782166.797546-21.560044.90094-32.342743.045776-4.773133-.364563-9.607437-1.15271-14.316071-.812134-4.851883-7.035095-8.209762-12.173248-6.638321-3.931061 1.202301-7.737122 2.903244-11.460907 4.672577-5.763764 2.738602-8.854676 6.634888-8.341004 13.864075.787262 11.079727.206787 22.256653.206787 33.920303h14.02948c0 3.760071 0 7.008698-.124908 11.048889-.428528 2.215851-.732147 3.640137-1.035736 5.064423-9.58664-.006287-19.173249-.012573-29.266236-.438202-.573913-1.782959-.641479-3.146484-.669067-4.973083.04834-17.281098.087708-34.099198.053925-50.917145-.021759-10.82283-5.546143-14.819535-15.748841-11.09642-4.149872 1.514373-7.980682 3.904388-11.95343 5.902481-3.274048 1.646667-4.520569 4.059341-4.398163 7.942337.330445 10.480087.113098 20.977432.113098 31.467941v6.30188h14.076722c0 3.963348 0 7.41806-.050599 11.277984-.121948 1.752228-.193328 3.099213-.264709 4.446259-14.229401-.240204-28.460999-.410706-42.683838-.858032-1.092529-.034333-2.123627-2.021088-3.242371-3.52829z" fill="#1e68ad"/><path d="m680.949829 314.118805c-12.783081 0-25.566101 0-38.645935 0 0-5.252319 0-9.828095 0-14.938141h14.572327c0-19.436157 0-38.350525-.117798-57.722519-.046631-2.853836.024536-5.250046.142334-8.548904.046631-8.09784.046631-15.293015.046631-22.667618-3.410401 0-6.176026 0-8.941712 0-1.460083-.150528-2.920166-.301056-4.707885-.485367 0-4.801468 0-9.381866 0-14.361328h30.640441v10.836395c13.326294-11.970764 27.715699-15.858001 43.596558-9.260269 12.854492 5.340454 20.805786 15.309342 23.550293 29.918503.35083 1.879806.662964 3.010666.975098 4.14154.279968 8.210968-.053955 16.343613-3.090454 24.544373-.011536.411484.018127.356216-.209839.455994-.527893.29721-.688965.575073-.868225 1.245025-3.679383 4.805084-7.201783 9.298523-10.917786 14.080445-12.947693 10.940521-35.011414 13.189697-53.065857-2.060608 0 5.568603 0 10.637512-.256287 15.953918-.017212 2.108978.221802 3.970398.418702 6.269714-.042176 2.649781-.042176 4.861725-.042176 7.413483 2.405457 0 4.161927 0 6.237732.151489 1.791992.050721 3.264649-.050018 5.172791-.127594 3.176086-.269378 4.965027.31717 4.610473 3.723877-.25708 2.469635-.26538 5.011139.003907 7.47818.351623 3.221222-1.147522 4.172638-4.420533 3.921509-1.843505-.013397-3.263122.012238-4.6828.037903m33.345581-54.227631c10.028076-8.812378 13.562012-24.192306 7.434509-36.079376-6.528442-12.664856-21.765136-19.962921-35.830688-10.167114-9.188782 6.39949-12.280457 15.460647-11.930969 26.22731.306762 9.448227 4.501709 16.627701 12.745544 20.907303 8.888123 4.614044 18.083679 6.081177 27.581604-.888123z" fill="#1e68ad"/><path d="m108.041496 260.88916c.321442 3.401795.642891 6.80362.687233 10.900269-.43206 2.189117-.587028 3.68338-.741997 5.177673-15.778564 0-31.557128 0-47.658638 0 0-5.381653 0-10.287353 0-15.727966h14.232743c0-28.868393 0-57.21225 0-85.898743-7.281189 0-14.520066 0-22.292275 0v27.199738c-5.535373 0-10.56026 0-15.931114 0 0-14.265122 0-28.499588 0-43.553315 30.24984 0 60.476799 0 91.56089.031601 1.900032.066437 2.94291.101258 3.985802.136078v43.865341c-3.489487 0-6.723473 0-10.652481-.246673-1.873398-.421967-3.051773-.597244-4.230812-1.241272-.000656-9.040192-.000656-17.611633-.000656-26.202988-8.034683 0-15.26561 0-23.244881 0v85.654068c3.006729 0 6.126549 0 9.458832.270752 1.750763.05896 3.289055-.152801 4.827354-.364563z" fill="#1e68ad"/><path d="m608.588684 194.995361c12.7453 5.932068 15.90094 16.455674 15.484802 29.123291-.355102 10.807389-.083557 21.635712-.062683 32.454712.003174 1.623322.151245 3.246338.256958 5.364136h13.380432v15.651672c-9.343811 0-18.700134 0-28.404297 0-.145446-2.674957-.284362-5.229919-.455261-8.372772-8.23645 6.54419-16.929687 10.089966-27.196228 9.87384-13.189148-.277587-25.913696-13.656097-25.975525-25.691955-.090027-17.54773 15.01001-26.458954 27.464783-27.432312 8.71521-.681137 16.587524 1.87709 24.757813 6.442612.153503-7.541703.424133-14.161698-3.913025-19.983612-4.82312-6.474228-19.034912-6.649582-25.422791-1.400177-2.390015 1.964111-4.808288 5.581771-7.165283 5.542419-4.726929-.078873-9.42041-2.156189-14.751892-3.574661 4.818298-9.962357 11.973999-15.86229 22.637634-18.641449 2.004456-.639313 3.39209-.981812 4.779724-1.324295 8.058228.654007 16.116455 1.308029 24.584839 1.968551m-9.364563 47.081818c-3.127502-.992432-6.198242-2.258759-9.394104-2.9216-7.167725-1.486634-16.326721 4.349746-17.750244 11.05664-1.429138 6.732788 4.103821 14.749604 11.931885 15.507569 9.00769.872222 16.532592-3.484955 23.053344-9.441529.616822-.563431.701966-1.768951.916077-2.703354 1.553711-6.780365-3.941833-8.470993-8.756958-11.497726z" fill="#1e68ad"/><path d="m226.045761 272.993652c-2.397369-3.132873-5.314636-5.996551-7.10086-9.445892-7.196381-13.896713-.431717-30.275497 14.376007-35.516907 11.112548-3.933426 23.151901-2.797027 34.466903 3.505173 0-4.453461.727326-8.789536-.138611-12.779846-2.440338-11.245728-11.853103-13.273209-21.371795-11.162216-3.768921.835861-7.439911 3.563552-10.366562 6.279907-2.267746 2.104812-4.040848 2.566711-6.771942 1.747696-3.900849-1.169815-7.884461-2.063675-12.188431-3.16655 4.183639-8.814911 10.773132-14.479294 19.585297-17.408783 10.5737-3.515106 21.272888-3.603149 31.985077-.279373 9.33377 2.896042 14.51007 9.781601 15.260772 18.840164 1.149506 13.871491.889099 27.860153 1.212128 41.799439.045471 1.963012.006256 3.927978.006256 6.417572h13.05954c0 3.759246 0 7.011993.088379 10.720184-.708039 1.811707-1.464508 4.317139-2.307068 4.346466-8.422669.292725-16.859558.177765-25.723725.177765 0-3.094879 0-5.65564 0-9.020325-10.699981 8.615723-21.897384 12.782288-35.529846 9.39151-3.226471-1.703705-5.884002-3.074829-8.541519-4.445984m31.15892-10.063079c2.821473-1.7034 5.809479-3.187195 8.421112-5.167359 3.06659-2.325134 3.618561-9.880707.898102-11.902511-6.401336-4.757416-13.525268-7.842728-21.67894-6.754456-5.593948.746628-9.859863 3.869019-11.558853 9.486496-1.567169 5.181747-.291565 9.730286 4.043366 13.237305 6.066101 4.907562 12.552673 3.769409 19.875213 1.100525z" fill="#1e68ad"/><path d="m583.864136 192.697296c-1.247925.671997-2.635559 1.014496-4.402344 1.373871-1.732361-3.715302-3.546204-7.352264-4.34137-11.199768-1.590698-7.696442 1.857422-13.769287 7.858155-18.129105 7.901794-5.741104 16.208313-10.923172 24.287048-16.424575 1.617493-1.101471 3.310669-2.329163 4.431335-3.885682 9.642884-13.392868 21.698121-22.610679 38.916138-23.495803 4.282227-.220139 6.976807-3.525231 7.074341-7.188668.142517-5.349869-.873291-10.798256-1.955139-16.090202-.770874-3.770706-3.603516-4.427117-6.933716-2.724854-2.356445 1.204483-4.654907 2.526001-7.036438 3.676972-7.877625 3.807152-15.686523.05957-16.687622-8.544121-1.107727-9.519516-1.557617-19.124863-2.039307-28.705624-.61084-12.151126-6.622192-19.295532-19.483215-19.52959-8.202881-.149281-13.758118 2.687172-18.458862 9.29858-5.202088 7.316463-12.832276 11.802353-21.79187 12.645996-5.392884.507793-8.662293 3.245251-11.215577 7.18977-9.475464 14.638458-23.359497 21.555824-40.228637 21.908539-24.720551.516891-49.460541.202201-74.191346.070175-8.286499-.044235-16.567565-.779221-24.855682-.912514-25.940247-.417145-51.883362-.655037-77.824066-1.04689-16.614807-.250977-33.227326-.652382-49.840912-.98407-16.78009-.335022-33.56015-.672508-50.340408-.999207-17.446289-.339668-34.894059-.614242-52.338684-1.023567-8.621155-.202293-17.245026-.506492-25.851639-1.028732-5.106171-.309822-7.810669 2.1586-8.948364 6.736206-3.59227 14.453888-7.116089 28.92485-10.635788 43.396667-1.720276 7.073121-3.372788 14.162751-5.100998 21.65915-1.087921.379425-2.130799.344604-3.564118.25917 2.739655-13.585419 5.82985-27.129639 9.01384-40.651771 2.123703-9.019135 4.373718-18.008614 6.581268-27.007912 1.431153-5.834267 4.331833-7.536888 10.373642-7.474587 19.4861.200921 38.976151-.002632 58.46286.163659 25.442627.217125 50.88382.616256 76.325074.979278 20.944702.298851 41.888549.659989 62.832763.99202 21.11081.334686 42.221558.668785 63.332398 1.000809 21.277344.334625 42.555847.610725 63.831604 1.025787 8.954254.174675 17.986542 1.538612 26.829803.714485 8.42688-.785316 17.007752-2.841858 24.841858-6.015671 5.053345-2.047249 9.345581-6.699142 13.152649-10.927688 5.783814-6.42424 11.457947-12.259297 20.865295-12.895546 8.863099-.599438 13.06128-7.765297 17.617066-14.02454 3.950134-5.427037 9.146728-8.022209 15.714783-7.840153 4.624145.12817 9.273559.353214 13.849548.984699 7.606384 1.049671 12.585022 5.798901 13.854675 13.073601 1.414673 8.105904 1.40625 16.453152 2.191468 24.67873.422424 4.425514.798889 8.924751 1.928222 13.19722 1.704651 6.449318 5.165772 7.739914 11.339722 4.880318 1.358887-.629395 2.707825-1.292389 4.009399-2.031327 7.08783-4.023735 13.324707-2.146858 15.099366 5.490006 1.367187 5.883774 1.512207 12.164627 1.367004 18.249023-.105591 4.427498-6.458557 8.69793-11.571289 9.494988-13.27948 2.070221-24.954834 7.693748-32.422119 19.071098-5.195008 7.9151-13.427918 11.017212-20.394104 16.155258-3.861145 2.847855-8.262635 5.162338-11.53595 8.567581-7.39679 7.694962-8.655273 11.05626-1.99176 23.848511z" fill="#daf0fb"/><path d="m139.882874 272.945099c-.000016-3.448761-.000016-6.897492-.000016-10.859802h15.750138c0-17.410202 0-34.30362 0-51.902375-4.923951 0-9.965027 0-15.309342 0 0-5.603439 0-10.509475 0-15.230774h29.418152v13.919816c8.061691-14.50821 21.725433-15.261338 35.979569-15.641846v17.207687c-5.382203.532425-10.679947.611145-15.780427 1.654343-10.409011 2.128921-15.065155 7.395126-15.87442 18.019119-.789489 10.36406-1.018219 20.770844-1.518417 31.711975h18.465973c0 3.752686 0 7.001404-.262161 10.945435-.417939 1.89563-.5737 3.095978-.729462 4.296325-16.361633-.008789-32.723267-.017578-49.545609-.449249-.505142-1.505493-.54956-2.588074-.593978-3.670654z" fill="#1e68ad"/><path d="m351.872864 273.422546c-.068634-3.878723-.068634-7.334869-.068634-11.300781h14.813415c0-29.415741 0-58.30986 0-87.912567-4.552887 0-9.25711 0-14.282196 0 0-5.274872 0-9.848953 0-14.818283h31.44574v102.432327h12.274322c0 3.758606 0 7.011444.083588 10.720459.31308 3.643372-1.118988 4.666138-4.317352 4.621124-11.898956-.167602-23.801789-.099456-35.70282-.039611-2.394226.012024-4.380829-.146363-4.246063-3.702668z" fill="#1e68ad"/><path d="m742.449524 231.068604c-.701477-1.168381-1.013611-2.299241-1.30957-3.783814 13.866455.847275 24.10382 7.872925 32.044372 19.001968 12.642883 17.719651 19.461975 37.72612 22.63794 58.935654 1.881775 12.566773 2.728027 25.358063 3.044372 38.073151.449402 18.060333-3.703064 15.917846-17.535156 17.707611-10.954285 1.417419-22.619995.974243-32.674744 4.779358-12.403137 4.693725-23.815979 4.107208-35.887634 1.026306-9.392944-2.397186-15.707886.424744-20.559387 8.673187-4.968689 8.447663-11.440369 15.062958-20.565125 19.508637-5.979919 2.913482-10.608337 8.488678-16.388488 11.962555-4.106019 2.467773-9.018128 4.221069-13.760987 4.844543-5.990173.787476-10.594421-5.236877-8.725036-11.136597 1.839599-5.805664 4.566894-11.342193 7.075927-16.919769 2.0401-4.535065 4.38794-8.930695 6.496826-13.436127 1.563111-3.339386.103882-6.272186-2.684143-7.581848-1.346435-.632477-4.319824.748444-5.768493 2.076996-3.286133 3.013733-6.162659 6.493134-9.061707 9.905548-4.154785 4.890686-9.529907 6.78656-15.750244 7.451599-1.89386.202454-4.7099 1.917023-5.200806 3.521332-4.455932 14.561493-15.668396 18.451172-29.10968 19.435211-4.429077.324249-8.8078 1.39151-13.197143 2.187683-5.825013 1.05658-9.905884-1.450348-10.526123-7.227539-.935486-8.713775-1.611695-17.470642-1.956665-26.226562-.193299-4.906159-1.975403-8.282746-5.926209-11.276673-6.725342-5.096557-12.999756-10.788208-19.795959-16.812225-.270691-2.333984-.209046-4.085632-.1474-5.83725 1.388122 1.316559 2.716369 2.703827 4.17456 3.937531 6.656128 5.631439 13.127014 11.518524 20.116944 16.703735 3.77478 2.800171 5.385009 5.980713 5.513916 10.422486.255005 8.784301.582641 17.56784 1.010803 26.345306.228271 4.679199 3.547607 7.032593 8.08728 6.137115 7.7771-1.534057 15.542359-3.165252 23.368897-4.397979 4.90625-.772827 8.223877-3.201599 10.289001-7.588532.566834-1.204162 1.328735-2.336639 1.747559-3.586914 2.203369-6.578186 6.602478-9.408295 13.620117-10.236816 3.826782-.451783 7.618408-3.662781 10.811951-6.357056 3.51654-2.966827 6.28778-6.806763 9.459472-10.195465 3.262329-3.485657 7.083801-4.271332 11.225403-1.702026 4.175476 2.590362 5.668823 7.609649 3.459168 12.252288-3.707581 7.789338-7.774292 15.408173-11.453553 23.210205-1.248474 2.6474-2.309692 5.593415-2.518921 8.471161-.310485 4.270264 2.864441 6.647766 6.823548 5.065308 4.747925-1.897736 9.511841-4.069244 13.723266-6.926331 7.373291-5.002197 14.53241-10.37564 21.373047-16.082824 3.195984-2.666382 6.228394-6.105377 7.973572-9.831757 6.661194-14.223144 15.899536-14.551788 28.899048-13.050476 1.625732.187775 3.215271.783417 4.792297 1.282562 7.844727 2.483002 15.0896 2.25943 23.055176-1.215271 6.913696-3.015838 15.040466-3.439758 22.701599-4.49942 7.521668-1.040375 15.140869-1.356109 22.699951-2.154083 3.646912-.384979 5.603272-2.692658 5.806824-6.348694 1.733032-31.133209-3.190857-61.086548-17.374573-88.993011-5.624756-11.066559-12.839355-21.469452-24.745971-27.061249-2.773072-1.302323-6.00116-1.635895-9.409119-2.452728z" fill="#daf0fb"/><path d="m304.033844 273.350037c-.199768-3.800629-.199768-7.254609-.199768-11.224488h12.782165c0-17.414901 0-34.313247 0-51.820251-3.546417-.179138-7.258239-.366638-11.283325-.569962 0-4.802078 0-9.375885 0-14.344619h28.447968v66.434417h13.259338c0 3.756897 0 7.008362.062866 10.719055-.745239 3.513306-2.37091 4.764924-5.866302 4.665345-10.712708-.305146-21.441376-.216736-32.159851-.039185-2.786865.046143-4.356049-.735809-5.043091-3.820312z" fill="#1e68ad"/><path d="m413.999725 344.839294c-.109008 1.917084-.217895 3.354706-.339355 4.958802-2.865448 0-5.32666 0-8.72464 0 0-16.052643 0-32.037506 0-48.169678 7.471588-1.904022 8.908173-1.399963 13.299744 5.153351 3.299041 4.923004 6.549011 9.878937 10.187988 15.374786 3.663696-5.553467 7.18045-10.629486 10.42923-15.871582 4.336486-6.99707 4.247131-7.05246 12.90039-5.740723.503479 15.790955 1.009369 31.657868 1.530365 47.998475-3.562988 0-6.587127 0-9.990967 0 0-10.130921 0-20.232819 0-30.334687-.339782-.157074-.679565-.314117-1.019378-.471161-4.449677 6.658143-8.899353 13.316285-13.745026 20.566956-4.7565-6.880249-9.188782-13.291443-14.528198-21.014832 0 10.003388 0 18.53711-.000153 27.550293z" fill="#1e68ad"/><path d="m499.303162 342.649841c-1.011353-4.68576-3.544007-6.436157-7.93982-5.688873-1.454742.247345-3.010132.210114-4.479767.010468-7.853271-1.066864-13.141052.968231-15.477539 9.644836-1.339996 4.976166-6.498046 1.447571-10.632232 2.430389 3.898834-9.371948 7.474182-18.006988 11.082977-26.628021 2.801697-6.692901 5.503876-13.434509 8.578857-20.00061.687134-1.467255 2.672333-3.071961 4.194489-3.218903 2.015686-.19461 5.447754.373291 6.059601 1.662781 7.407532 15.612122 14.40747 31.417602 21.57315 47.305023-8.831726 1.97702-9.668518 1.607483-12.959716-5.51709m-15.464234-25.329803c-1.511657 3.731323-3.023315 7.462646-4.580108 11.30542h14.232788c-2.509369-5.593506-4.738129-10.561432-7.388977-16.470307-1.037171 2.167298-1.576813 3.294922-2.263703 5.164887z" fill="#1e68ad"/><path d="m527.170166 339.482361c-.01355 2.190796-.075195 3.942444-.094727 6.130859-1.114746 6.480042-5.590576 1.922089-9.216186 4.029724 0-13.190979 0-25.41452.032226-38.506958-.289001-2.625702-.610229-4.382538-.931457-6.139373-.739441-4.915375 1.526367-6.456452 6.223633-6.054352 6.396179.547546 12.850097.449249 19.23761 1.062134 9.565673.917785 14.440551 9.353973 13.591369 18.487457-.721435 7.759521-8.251159 14.194885-17.305603 14.487304-3.625061.117066-7.25708.019257-11.5849.019257 0 2.242676 0 4.143738.048035 6.483948m18.826843-23.159363c.897339-7.845642-7.030639-9.704071-18.59613-7.676697v15.353638c3.358581 0 6.32312-.096436 9.279114.021606 4.994873.199463 8.24414-1.824524 9.317016-7.698547z" fill="#1e68ad"/><path d="m516.573853 304.952179c.707397 1.801269 1.028625 3.558105 1.279418 5.722137-2.667846-.630035-5.473266-1.337677-7.798889-2.805511-1.966888-1.241486-4.545013-3.196289-4.821319-5.12616-.908325-6.344452-1.148072-12.821563-1.13855-19.246948.00592-3.997894-1.109741-6.052307-5.78952-5.554962-.132019-1.464905.1716-2.889191.6362-4.646759 9.898895-.35376 8.625702 1.328491 9.947326 9.624237.618683 3.883331.109406 7.946442.110108 11.92807.001434 7.930908.001098 7.930908 7.575226 10.105896z" fill="#d9f0fb"/><path d="m190.318939 277.352753c-.140716-1.488098.015045-2.688446.448883-4.122467 11.629349-.233033 22.980622-.232331 34.804901-.234131 3.130555 1.368652 5.788086 2.739776 8.591111 4.413543-14.419144.278718-28.98378.254761-43.844895-.056945z" fill="#d9f0fb"/><path d="m365.016266 309.815674c.498932 2.002472 1.009582 3.670685 1.644836 5.746002-1.984894 0-3.973755 0-6.103851 0 0-3.28302 0-6.591614 0-10.431885 2.345978.117523 4.842285.263397 7.340576.358155 1.101776.041778 2.286652.234405 3.297485-.079895 3.990387-1.240784 7.809266.048156 8.113312 3.747192.175843 2.139069-1.663574 5.795654-3.443451 6.444427-3.09848 1.129395-6.583831.274201-7.043945-4.481018-.064056-.661895-2.470917-1.097076-3.804962-1.302978z" fill="#1e68ad"/><path d="m139.424911 272.965057c.502381 1.062622.546799 2.145203.583573 3.633759-1.724945.737274-3.443298 1.357788-5.159317 1.351318-8.763062-.03302-17.525513-.227936-26.575302-.674621-.132164-1.802704.022804-3.296967.461517-5.032715 4.50235.091858 8.71611.597137 12.940765.716522 5.759247.162689 11.52681.031097 17.748764.005737z" fill="#d9f0fb"/><path d="m380.436279 313.27356c.152375-2.794983.152375-5.204163.152375-8.261353 3.86325 0 7.904693-.104065 11.938842.023499 6.684845.211364.771271 7.449432 5.644196 8.735107-.249573.567078-.499146 1.134155-.748688 1.701233-5.713043-.604218-11.426086-1.208466-16.986725-2.198486z" fill="#1e68ad"/><path d="m648.053833 210.573975c2.717529-.332352 5.483154-.332352 8.893555-.332352 0 7.374603 0 14.569778-.082032 22.218857-1.791015-4.751328-3.371765-10.003861-5.268005-15.139939-.834473-2.260147-2.310608-4.283401-3.543518-6.746566z" fill="#fff"/><path d="m467.894104 272.951874c.067566 1.363556.135132 2.727081.253357 4.493347-5.768799.43396-11.588226.46521-17.896545.432709-.41745-1.410828-.34607-2.757813.236084-4.496582 6.142852-.404297 11.774993-.41687 17.407104-.429474z" fill="#daf0fb"/><path d="m599.601318 312.054565c-5.460937-5.136108-12.437256-6.569519-18.02301-3.865997-5.522827 2.673004-10.049683 10.107147-9.55957 15.699188.670044 7.645111 5.468994 14.569123 12.29895 15.507294 3.918274.538178 9.088928-.229645 12.087891-2.517364 5.417297-4.132538 8.106567-1.876435 11.00885 2.396972-6.008972 8.781464-16.599915 11.787811-28.505432 8.192139-10.48346-3.166229-16.847901-13.380859-16.727967-23.83728.130432-11.373505 4.947144-20.747925 17.677979-24.661316 8.986877-2.762451 22.75122-.666138 27.318115 7.767669-2.355957 1.783539-4.834106 3.659607-7.575806 5.318695z" fill="#1e68ad"/><path d="m681.006409 314.46283c1.363098-.36969 2.782715-.395325 4.646179-.035401 4.072815 8.902558 11.297241 13.148529 19.581177 15.521607 16.794128 4.810974 32.788635.294403 48.454895-5.377106 9.689392-3.507721 14.650695-10.529755 13.338195-21.251038-.18048-1.474579-.360473-3.109893.076478-4.473022 2.627929-8.199951.136535-14.566071-6.464234-19.746369-5.213684-4.091735-8.423889-9.055816-7.887695-16.233276.15802-2.115936-2.272705-4.425232-3.51709-6.645874-1.836914 1.429901-4.017212 2.580963-5.446838 4.341583-4.395508 5.413208-8.128113 11.648743-16.620057 10.504547 3.522461-4.493469 7.044861-8.986908 10.94806-13.892303.649047-.627716.812988-.905243.872375-1.244492 0 0-.029663.055268-.056091.036805.74292-.265213 1.635315-.338868 2.262878-.784958 7.942566-5.644867 14.99231-2.950699 15.598938 6.663177.470032 7.449341 3.827637 12.376496 9.595459 16.393158 3.994385 2.781647 5.509338 7.133301 5.51178 11.677429.003906 7.441132.012268 14.978608-1.134583 22.294648-.983825 6.276794-5.247253 10.966735-11.0578 13.904968-10.312195 5.214599-21.182739 8.027344-32.763855 9.062744-8.871521.793121-17.61206 1.195312-25.839294-2.16507-8.714173-3.559265-16.077698-9.153625-20.098877-18.551757z" fill="#daf0fb"/><path d="m316.227966 162.546814c4.142609-4.501099 9.305786-5.856445 13.881348-3.944458 4.474823 1.869888 6.4776 7.835648 4.447876 13.24913-1.869415 4.985932-7.570679 7.494202-12.648499 5.564697-6.263977-2.380218-8.354797-7.555145-5.680725-14.869369z" fill="#1e68ad"/><path d="m117.001495 202.000626c1.178391.175293 2.356766.35057 3.768937.796447-2.572754 12.509507-5.388329 24.746369-8.182244 36.988175-1.543274 6.761993-3.050217 13.532272-4.560112 20.701385-1.524879.614289-3.063171.82605-4.80693.366577 4.456474-20.065033 9.118408-39.458816 13.780349-58.852584z" fill="#daf0fb"/><path d="m467.934082 272.488831c-5.672089.475647-11.30423.48822-17.396515.487304-.460174-3.46817-.460174-6.922882-.460174-10.88623-4.850098 0-9.104523 0-14.076722 0 0-2.44458 0-4.37323 0-6.30188 0-10.490509.217347-20.987854-.113098-31.467941-.122406-3.882996 1.124115-6.29567 4.398163-7.942337 3.972748-1.998093 7.803558-4.388108 11.95343-5.902481 10.202698-3.723115 15.727082.27359 15.748841 11.09642.033783 16.817947-.005585 33.636047-.053925 50.917145z" fill="#fff"/><path d="m726.973877 271.356934c8.685486.855743 12.418091-5.379792 16.813599-10.793 1.429626-1.76062 3.609924-2.911682 5.446838-4.341583 1.244385 2.220642 3.67511 4.529938 3.51709 6.645874-.536194 7.17746 2.674011 12.141541 7.887695 16.233276 6.600769 5.180298 9.092163 11.546418 6.464234 19.746369-.436951 1.363129-.256958 2.998443-.076478 4.473022 1.3125 10.721283-3.648803 17.743317-13.338195 21.251038-15.66626 5.671509-31.660767 10.18808-48.454895 5.377106-8.283936-2.373078-15.508362-6.619049-19.157349-15.482605 2.829224-.1344 4.328369-1.085816 3.976746-4.307038-.269287-2.467041-.260987-5.008545-.003907-7.47818.354554-3.406707-1.434387-3.993255-4.618408-4.101501-1.439758-7.060516-5.194519-11.400787-11.522827-13.576965 0-5.068909 0-10.137818 0-15.706421 18.054443 15.250305 40.118164 13.001129 53.065857 2.060608z" fill="#fff"/><path d="m713.949585 260.021118c-9.1521 6.839356-18.347656 5.372223-27.235779.758179-8.243835-4.279602-12.438782-11.459076-12.745544-20.907303-.349488-10.766663 2.742187-19.82782 11.930969-26.22731 14.065552-9.795807 29.302246-2.497742 35.830688 10.167114 6.127503 11.88707 2.593567 27.266998-7.780334 36.20932z" fill="#fff"/><path d="m673.651733 285.250244c6.584595 1.928681 10.339356 6.268952 11.343689 13.306275-1.464782.478393-2.937439.579132-4.855407.21936-2.30597-2.871643-4.166748-5.282715-6.027466-7.693787-.239014-1.86145-.478028-3.72287-.460816-5.831848z" fill="#d9f0fb"/><g fill="#fff"><path d="m674.070435 291.519958c1.902832 1.973206 3.76361 4.384278 5.750244 7.104432-1.630493.309051-3.386963.309051-5.79242.309051 0-2.551758 0-4.763702.042176-7.413483z"/><path d="m738.759888 256.031464c.168579.239471.004638.516998-.487549.833038-.201416-.257965-.040344-.535828.487549-.833038z"/><path d="m117.000839 201.531891c-4.661285 19.862503-9.323219 39.256286-13.992164 59.050567-3.126816.400513-6.246636.400513-9.253365.400513 0-28.772064 0-57.049499 0-85.654068h23.244881c0 8.591355 0 17.162796.000648 26.202988z"/><path d="m599.56311 242.256577c4.476136 2.847335 9.97168 4.537963 8.417969 11.318328-.214111.934403-.299255 2.139923-.916077 2.703354-6.520752 5.956574-14.045654 10.313751-23.053344 9.441529-7.828064-.757965-13.361023-8.774781-11.931885-15.507569 1.423523-6.706894 10.582519-12.543274 17.750244-11.05664 3.195862.662841 6.266602 1.929168 9.733093 3.100998z"/><path d="m256.834229 263.061584c-6.952088 2.537873-13.43866 3.676026-19.504761-1.231536-4.334931-3.507019-5.610535-8.055558-4.043366-13.237305 1.69899-5.617477 5.964905-8.739868 11.558853-9.486496 8.153672-1.088272 15.277604 1.99704 21.67894 6.754456 2.720459 2.021804 2.168488 9.577377-.898102 11.902511-2.611633 1.980164-5.599639 3.463959-8.791564 5.29837z"/><path d="m483.912567 316.948853c.613251-1.49878 1.152893-2.626404 2.190064-4.793702 2.650848 5.908875 4.879608 10.876801 7.388977 16.470307-5.051697 0-9.278687 0-14.232788 0 1.556793-3.842774 3.068451-7.574097 4.653747-11.676605z"/><path d="m545.98877 316.731567c-1.064637 5.465454-4.313904 7.489441-9.308777 7.289978-2.955994-.118042-5.920533-.021606-9.279114-.021606 0-5.360107 0-10.365265 0-15.353638 11.565491-2.027374 19.493469-.168945 18.587891 8.085266z"/></g></svg>