<svg xmlns:dc="http://purl.org/dc/elements/1.1/" xmlns:cc="http://creativecommons.org/ns#" xmlns:rdf="http://www.w3.org/1999/02/22-rdf-syntax-ns#" xmlns:svg="http://www.w3.org/2000/svg" xmlns="http://www.w3.org/2000/svg" xmlns:sodipodi="http://sodipodi.sourceforge.net/DTD/sodipodi-0.dtd" xmlns:inkscape="http://www.inkscape.org/namespaces/inkscape" version="1.1" x="0px" y="0px" viewBox="0 0 100 100"><g transform="translate(0,-952.36218)"><path style="text-indent:0;text-transform:none;direction:ltr;block-progression:tb;baseline-shift:baseline;color:#000000;enable-background:accumulate;" d="m 71,964.36217 c -6.60369,0 -12,5.3962 -12,12 0,1.5689 0.29072,3.0923 0.84375,4.4687 l -22.8125,12.6563 c -2.13154,-1.9312 -4.9437,-3.125 -8.03125,-3.125 -6.60369,0 -12,5.3962 -12,12.00003 0,6.6037 5.39631,12 12,12 3.09975,0 5.92804,-1.1803 8.0625,-3.125 l 22.8125,12.6562 c -0.5623,1.3864 -0.875,2.886 -0.875,4.4688 0,6.6037 5.39631,12 12,12 6.60369,0 12,-5.3963 12,-12 0,-6.6038 -5.39631,-12 -12,-12 -3.59539,0 -6.82772,1.6018 -9.03125,4.125 L 39.5625,1008.0497 c 0.91769,-1.6941 1.4375,-3.634 1.4375,-5.6875 0,-2.0637 -0.51137,-3.98753 -1.4375,-5.68753 l 22.40625,-12.4375 c 2.20362,2.5259 5.43355,4.125 9.03125,4.125 6.60369,0 12,-5.3963 12,-12 0,-6.6038 -5.39631,-12 -12,-12 z" fill="#000000" fill-opacity="1" stroke="none" marker="none" visibility="visible" display="inline" overflow="visible"></path></g></svg>